<?xml version="1.0" encoding="UTF-8"?>
<svg version="1.1" xmlns="http://www.w3.org/2000/svg" width="800" height="500">
<path d="M0 0 C2.94182343 1.50678761 3.90935613 2.46753414 5.5625 5.3125 C5.96313477 8.48413086 5.96313477 8.48413086 6.00390625 12.27734375 C6.02269836 13.3170507 6.02269836 13.3170507 6.04187012 14.37776184 C6.06802992 15.88069452 6.08786091 17.38374776 6.1020813 18.88684082 C6.14138493 22.93945887 6.22825505 26.99107509 6.3125 31.04296875 C6.32902115 31.88397125 6.3455423 32.72497375 6.36256409 33.59146118 C6.59268564 44.266541 7.24681343 54.91804088 7.90258789 65.57397461 C8.47824838 75.16651521 8.67195486 84.70317434 8.5625 94.3125 C9.5525 94.6425 10.5425 94.9725 11.5625 95.3125 C11.5625 95.9725 11.5625 96.6325 11.5625 97.3125 C12.3875 97.23 13.2125 97.1475 14.0625 97.0625 C17.94777179 97.34001941 19.97854064 98.39856089 23.328125 100.22265625 C27.22446996 102.12314619 31.38915411 103.18364414 35.5625 104.3125 C35.5625 104.9725 35.5625 105.6325 35.5625 106.3125 C36.325625 106.580625 37.08875 106.84875 37.875 107.125 C40.45238618 108.26384505 41.83204864 109.12666671 43.5625 111.3125 C43.5625 111.9725 43.5625 112.6325 43.5625 113.3125 C44.14386719 113.39242187 44.72523438 113.47234375 45.32421875 113.5546875 C51.20019284 115.54410979 54.88527009 122.82411111 57.56640625 128.1015625 C60.2751266 133.72380045 62.61979618 139.37489638 64.5625 145.3125 C70.00710192 144.90703469 75.45141917 144.49799311 80.89550781 144.08569336 C82.74602049 143.94604729 84.59660609 143.80736392 86.44726562 143.66967773 C89.11348086 143.47114504 91.77941122 143.26910596 94.4453125 143.06640625 C95.26742218 143.0059462 96.08953186 142.94548615 96.93655396 142.88319397 C101.19832642 142.55558743 105.34871822 142.05479431 109.5625 141.3125 C112.25233778 141.11588242 114.93236088 140.94684124 117.625 140.8125 C124.94790489 140.41673213 132.25289759 139.90998055 139.5625 139.3125 C139.5625 138.6525 139.5625 137.9925 139.5625 137.3125 C141.5425 137.3125 143.5225 137.3125 145.5625 137.3125 C145.5625 136.9825 145.5625 136.6525 145.5625 136.3125 C146.67044922 136.32990234 146.67044922 136.32990234 147.80078125 136.34765625 C154.00191409 136.40281245 160.02898225 136.17591509 166.1875 135.43359375 C168.62575797 135.30927468 170.29280286 135.41733928 172.5625 136.3125 C174.5625 139.3125 174.5625 139.3125 174.1875 142 C173.98125 142.763125 173.775 143.52625 173.5625 144.3125 C162.20715548 147.54041519 162.20715548 147.54041519 157.25 147.3125 C153.3765056 147.1758688 149.97838423 147.75170792 146.1875 148.5625 C129.92738605 152.01510256 113.19133714 154.69775556 96.5625 155.3125 C96.5625 155.9725 96.5625 156.6325 96.5625 157.3125 C95.96566406 157.36148438 95.36882812 157.41046875 94.75390625 157.4609375 C85.99965908 158.21538971 77.2847051 159.25929118 68.5625 160.3125 C68.57410156 161.34890625 68.58570313 162.3853125 68.59765625 163.453125 C68.60703837 164.82291486 68.61613812 166.19270668 68.625 167.5625 C68.63337891 168.24441406 68.64175781 168.92632812 68.65039062 169.62890625 C68.66678392 173.00592554 68.61878768 176.08541639 67.5625 179.3125 C71.77427696 180.35442947 75.79260792 180.39881333 80.09887695 180.28149414 C81.21358525 180.25668504 81.21358525 180.25668504 82.35081291 180.23137474 C84.81354663 180.17324993 87.27585601 180.10509012 89.73828125 180.03515625 C90.59476068 180.0123012 91.45124012 179.98944614 92.33367348 179.96589851 C113.7344902 179.38318 135.07870117 177.98649862 156.4375 176.57202148 C176.27373947 175.2595539 195.96755888 174.08547291 215.85571289 174.28491211 C226.97698108 174.37919579 238.09019943 173.90511108 249.20288086 173.51486206 C255.38460473 173.29788056 261.56672033 173.09295345 267.74887848 172.88877296 C269.12636081 172.84324746 270.50383786 172.79756218 271.88130951 172.75171471 C283.40640076 172.36859241 294.93192545 172.05926994 306.46060181 171.80743408 C311.3801006 171.69884148 316.2993464 171.57932237 321.21861267 171.46072388 C324.59734168 171.37991405 327.97588092 171.30462304 331.35498047 171.24023438 C349.01892581 171.57717289 349.01892581 171.57717289 364.171875 163.89453125 C368.33987719 159.44447004 368.33987719 159.44447004 371.5625 154.3125 C372.5525 154.3125 373.5425 154.3125 374.5625 154.3125 C374.5625 153.6525 374.5625 152.9925 374.5625 152.3125 C376.2125 151.9825 377.8625 151.6525 379.5625 151.3125 C379.5625 151.6425 379.5625 151.9725 379.5625 152.3125 C381.2125 152.6425 382.8625 152.9725 384.5625 153.3125 C384.8925 155.6225 385.2225 157.9325 385.5625 160.3125 C384.5725 160.3125 383.5825 160.3125 382.5625 160.3125 C382.42972656 160.93898437 382.29695312 161.56546875 382.16015625 162.2109375 C381.98355469 163.02820313 381.80695312 163.84546875 381.625 164.6875 C381.45097656 165.49960938 381.27695312 166.31171875 381.09765625 167.1484375 C380.5625 169.3125 380.5625 169.3125 379.5625 171.3125 C379.39621094 172.49585938 379.39621094 172.49585938 379.2265625 173.703125 C378.42491907 176.85311213 377.36618157 177.94326435 374.9375 180.0625 C374.28523437 180.65546875 373.63296875 181.2484375 372.9609375 181.859375 C366.71816286 185.64164237 356.90147907 185.03783047 349.796875 185.765625 C348.42104155 185.90746527 347.0452178 186.04939968 345.66940308 186.19142151 C341.98160055 186.57163672 338.29360026 186.94989852 334.60553741 187.3275795 C332.30817487 187.56294311 330.01086194 187.79878559 327.71356201 188.03475952 C307.54227151 190.10613405 287.36821793 192.1472912 267.1875 194.125 C266.18150757 194.22373413 265.17551514 194.32246826 264.13903809 194.42419434 C250.28563306 195.78156376 236.42661864 197.06944064 222.5625 198.3125 C222.5625 199.9625 222.5625 201.6125 222.5625 203.3125 C223.5525 203.3125 224.5425 203.3125 225.5625 203.3125 C225.5625 205.6225 225.5625 207.9325 225.5625 210.3125 C226.2225 210.3125 226.8825 210.3125 227.5625 210.3125 C231.83230966 217.92389983 233.01760638 227.26530465 230.9609375 235.8125 C229.99251521 238.78624116 228.95006587 241.58354037 227.48046875 244.34765625 C226.34179744 246.49243452 226.34179744 246.49243452 226.25 249.875 C225.5625 253.3125 225.5625 253.3125 223.31640625 254.8359375 C222.40761719 255.32320313 221.49882813 255.81046875 220.5625 256.3125 C219.39460937 257.07240234 219.39460937 257.07240234 218.203125 257.84765625 C205.33849802 266.06672349 190.97274245 265.66038371 176.25 262.875 C174.5625 262.3125 174.5625 262.3125 171.5625 260.3125 C171.5625 259.6525 171.5625 258.9925 171.5625 258.3125 C170.94375 258.003125 170.325 257.69375 169.6875 257.375 C168.3125 256.6875 166.9375 256 165.5625 255.3125 C165.2325 254.3225 164.9025 253.3325 164.5625 252.3125 C163.758125 251.52875 162.95375 250.745 162.125 249.9375 C158.84718472 246.57973801 157.6452916 244.17531091 157.4375 239.5 C157.47875 238.778125 157.52 238.05625 157.5625 237.3125 C156.9025 237.3125 156.2425 237.3125 155.5625 237.3125 C155.5625 230.3825 155.5625 223.4525 155.5625 216.3125 C156.2225 216.3125 156.8825 216.3125 157.5625 216.3125 C157.706875 215.384375 157.85125 214.45625 158 213.5 C158.5625 210.3125 158.5625 210.3125 159.5625 207.3125 C160.2225 207.3125 160.8825 207.3125 161.5625 207.3125 C161.5625 206.3225 161.5625 205.3325 161.5625 204.3125 C157.64538672 204.61955806 153.72890839 204.93408834 149.8125 205.25 C148.70132813 205.33701172 147.59015625 205.42402344 146.4453125 205.51367188 C145.37539063 205.60068359 144.30546875 205.68769531 143.203125 205.77734375 C141.72634277 205.89517212 141.72634277 205.89517212 140.21972656 206.01538086 C137.65548433 206.24225945 137.65548433 206.24225945 135.57519531 206.80981445 C132.96248267 207.46235877 130.40217402 207.66187683 127.71875 207.890625 C126.51226807 207.99705322 125.30578613 208.10348145 124.06274414 208.21313477 C123.41306671 208.26962189 122.76338928 208.32610901 122.09402466 208.38430786 C108.25254673 209.59839234 94.43217648 211.01699579 80.62207031 212.54504395 C78.62162321 212.7652789 76.62080291 212.98214971 74.61962891 213.19567871 C71.79870341 213.49758652 68.97938146 213.81156288 66.16015625 214.12890625 C65.30434464 214.2184407 64.44853302 214.30797516 63.56678772 214.40022278 C61.55588723 214.63361171 59.55653964 214.96321916 57.5625 215.3125 C57.2325 215.9725 56.9025 216.6325 56.5625 217.3125 C55.9025 217.3125 55.2425 217.3125 54.5625 217.3125 C54.4696875 218.17875 54.4696875 218.17875 54.375 219.0625 C53.23280797 222.22549331 51.23107627 223.32658277 48.5625 225.3125 C47.4796875 226.42625 47.4796875 226.42625 46.375 227.5625 C44.5625 229.3125 44.5625 229.3125 42.5625 229.3125 C42.2325 230.3025 41.9025 231.2925 41.5625 232.3125 C28.00052306 242.3225306 15.60987109 244.50278662 -0.875 244.4375 C-2.33389648 244.44330078 -2.33389648 244.44330078 -3.82226562 244.44921875 C-12.24533459 244.43796548 -20.48980422 244.34019363 -28.4375 241.3125 C-29.76661682 240.96273242 -31.09832739 240.62153983 -32.4375 240.3125 C-32.4375 239.6525 -32.4375 238.9925 -32.4375 238.3125 C-33.07558594 238.13074219 -33.71367187 237.94898438 -34.37109375 237.76171875 C-35.19738281 237.51035156 -36.02367187 237.25898438 -36.875 237 C-37.69871094 236.75636719 -38.52242188 236.51273438 -39.37109375 236.26171875 C-40.39396484 235.79185547 -40.39396484 235.79185547 -41.4375 235.3125 C-41.7675 234.3225 -42.0975 233.3325 -42.4375 232.3125 C-43.0975 232.3125 -43.7575 232.3125 -44.4375 232.3125 C-44.4375 231.6525 -44.4375 230.9925 -44.4375 230.3125 C-45.4275 229.9825 -46.4175 229.6525 -47.4375 229.3125 C-47.4375 228.6525 -47.4375 227.9925 -47.4375 227.3125 C-48.035625 227.044375 -48.63375 226.77625 -49.25 226.5 C-51.43597854 225.31332594 -52.85082594 224.21650887 -54.4375 222.3125 C-54.4375 221.6525 -54.4375 220.9925 -54.4375 220.3125 C-55.0975 220.3125 -55.7575 220.3125 -56.4375 220.3125 C-57.45946992 219.33496356 -58.45729625 218.3319119 -59.4375 217.3125 C-63.24175553 214.77632965 -66.73840874 214.62057374 -71.17236328 214.16748047 C-72.06542679 214.06965271 -72.9584903 213.97182495 -73.87861633 213.87103271 C-76.83753246 213.54909873 -79.79757065 213.23917504 -82.7578125 212.9296875 C-84.81711008 212.70893 -86.87634396 212.48757764 -88.93551636 212.26565552 C-93.25758468 211.80164724 -97.580203 211.343289 -101.90332031 210.88916016 C-107.42875138 210.30850686 -112.95288168 209.7164352 -118.47667122 209.12038994 C-122.73321179 208.6619553 -126.99026238 208.2084137 -131.24749374 207.75644302 C-133.28326145 207.5399648 -135.31890075 207.32227544 -137.35440445 207.1033287 C-140.21121353 206.797035 -143.06861675 206.49703665 -145.92626953 206.19873047 C-147.17509163 206.06318253 -147.17509163 206.06318253 -148.44914246 205.92489624 C-153.80652597 205.37427655 -159.05148179 205.23611422 -164.4375 205.3125 C-163.91349609 206.49779297 -163.91349609 206.49779297 -163.37890625 207.70703125 C-159.25907003 217.91908987 -158.56592903 227.36100673 -158.4375 238.3125 C-159.0975 238.3125 -159.7575 238.3125 -160.4375 238.3125 C-160.52 239.3025 -160.6025 240.2925 -160.6875 241.3125 C-161.67544403 247.45010227 -163.22861154 251.54601233 -168.20703125 255.52734375 C-180.52542932 263.60809598 -193.57712179 264.9993247 -208.109375 262.7421875 C-214.31426732 261.4085568 -219.90974786 260.18890761 -224.25 255.25 C-225.4375 253.3125 -225.4375 253.3125 -225.4375 251.3125 C-226.035625 251.10625 -226.63375 250.9 -227.25 250.6875 C-230.88232044 248.40432715 -231.97795171 245.08417958 -233.03125 241.0234375 C-233.37447709 239.47386813 -233.70120774 237.92051071 -234.0078125 236.36328125 C-234.43514914 234.12795298 -234.43514914 234.12795298 -235.4375 231.3125 C-235.88836487 220.06905718 -233.49939868 212.69815513 -227.4375 203.3125 C-226.7775 203.3125 -226.1175 203.3125 -225.4375 203.3125 C-225.4375 201.9925 -225.4375 200.6725 -225.4375 199.3125 C-227.0875 199.3125 -228.7375 199.3125 -230.4375 199.3125 C-230.4375 198.6525 -230.4375 197.9925 -230.4375 197.3125 C-231.37464844 197.27511719 -232.31179687 197.23773438 -233.27734375 197.19921875 C-241.80517861 196.80413172 -250.22021397 196.02347353 -258.6875 194.9375 C-267.99151622 193.75883944 -277.29428763 192.87798477 -286.64453125 192.16937256 C-303.20219126 190.91205244 -319.72854955 189.37723288 -336.24978638 187.70864868 C-338.86048304 187.44600286 -341.47154786 187.18698929 -344.08297729 186.93173218 C-347.7804181 186.5691151 -351.47620182 186.19266141 -355.171875 185.8125 C-356.27670731 185.70625809 -357.38153961 185.60001617 -358.51985168 185.49055481 C-371.56049466 184.11045227 -371.56049466 184.11045227 -376.4375 181.3125 C-377.5536499 179.33398438 -377.5536499 179.33398438 -378.4375 177.3125 C-379.0975 176.6525 -379.7575 175.9925 -380.4375 175.3125 C-382.125 172.375 -382.125 172.375 -383.4375 169.3125 C-383.1075 168.3225 -382.7775 167.3325 -382.4375 166.3125 C-383.4275 166.3125 -384.4175 166.3125 -385.4375 166.3125 C-385.4375 164.3325 -385.4375 162.3525 -385.4375 160.3125 C-386.4275 159.9825 -387.4175 159.6525 -388.4375 159.3125 C-388.1075 157.3325 -387.7775 155.3525 -387.4375 153.3125 C-385.85455218 153.25812393 -384.27105744 153.21953729 -382.6875 153.1875 C-381.80578125 153.16429687 -380.9240625 153.14109375 -380.015625 153.1171875 C-377.3239142 153.32110498 -375.73845026 153.94698279 -373.4375 155.3125 C-373.4375 155.9725 -373.4375 156.6325 -373.4375 157.3125 C-372.7775 157.3125 -372.1175 157.3125 -371.4375 157.3125 C-369.7109375 159.2109375 -369.7109375 159.2109375 -367.8125 161.6875 C-366.86503906 162.90566406 -366.86503906 162.90566406 -365.8984375 164.1484375 C-364.4375 166.3125 -364.4375 166.3125 -364.4375 168.3125 C-363.4475 168.37308594 -362.4575 168.43367187 -361.4375 168.49609375 C-360.10415856 168.58060131 -358.77082567 168.665244 -357.4375 168.75 C-355.53255208 168.86905924 -353.62760417 168.98811849 -351.72265625 169.10717773 C-349.75155732 169.28428182 -347.78706651 169.53230356 -345.8253479 169.79356384 C-341.53607248 170.33102418 -337.26352604 170.61762683 -332.94677734 170.82080078 C-331.67347093 170.88223109 -331.67347093 170.88223109 -330.37444115 170.94490242 C-318.19221725 171.49832379 -305.99945595 171.76602778 -293.80894852 172.06731796 C-289.16114453 172.18231282 -284.51347385 172.30221142 -279.86581421 172.42288208 C-266.66020148 172.76517142 -253.45449952 173.10366593 -240.24853516 173.43212891 C-206.55569463 174.27169141 -172.87615829 175.19001794 -139.2109375 176.8203125 C-137.96410816 176.87993038 -136.71727882 176.93954826 -135.43266678 177.00097275 C-121.89228943 177.6570937 -108.38122415 178.45977976 -94.87839317 179.67721748 C-83.53074785 180.97756816 -83.53074785 180.97756816 -72.4375 179.3125 C-72.21947255 173.29251986 -72.15729152 167.95301572 -74.4375 162.3125 C-75.4275 161.9825 -76.4175 161.6525 -77.4375 161.3125 C-77.4375 160.6525 -77.4375 159.9925 -77.4375 159.3125 C-78.7575 159.6425 -80.0775 159.9725 -81.4375 160.3125 C-81.4375 159.6525 -81.4375 158.9925 -81.4375 158.3125 C-82.18773437 158.25191406 -82.93796875 158.19132813 -83.7109375 158.12890625 C-90.29409681 157.58998263 -96.86773456 156.99563933 -103.4375 156.3125 C-103.4375 155.6525 -103.4375 154.9925 -103.4375 154.3125 C-104.5925 154.35375 -105.7475 154.395 -106.9375 154.4375 C-119.70772095 154.4375 -132.85121962 151.90185696 -145.3125 149.3125 C-152.8362562 147.78100843 -160.54533553 146.24049696 -168.23828125 146.3828125 C-171.4375 146.3125 -171.4375 146.3125 -173.4375 144.3125 C-174.4275 144.3125 -175.4175 144.3125 -176.4375 144.3125 C-176.7675 142.0025 -177.0975 139.6925 -177.4375 137.3125 C-173.90193432 134.95545621 -173.12559613 135.19094076 -169.0546875 135.73828125 C-167.97767578 135.87516357 -166.90066406 136.0120459 -165.79101562 136.15307617 C-164.64310547 136.30881104 -163.49519531 136.4645459 -162.3125 136.625 C-148.67255176 138.34125381 -135.20283305 139.53099735 -121.4375 139.3125 C-121.4375 139.9725 -121.4375 140.6325 -121.4375 141.3125 C-117.4775 141.3125 -113.5175 141.3125 -109.4375 141.3125 C-109.4375 141.6425 -109.4375 141.9725 -109.4375 142.3125 C-108.60605469 142.30089844 -107.77460938 142.28929687 -106.91796875 142.27734375 C-105.83128906 142.26832031 -104.74460937 142.25929687 -103.625 142.25 C-102.54605469 142.23839844 -101.46710938 142.22679687 -100.35546875 142.21484375 C-97.4375 142.3125 -97.4375 142.3125 -94.4375 143.3125 C-92.96281402 143.53248078 -91.48265933 143.71748307 -90 143.875 C-89.23816406 143.95878906 -88.47632813 144.04257813 -87.69140625 144.12890625 C-85.61275731 144.29822427 -83.52303351 144.3125 -81.4375 144.3125 C-81.4375 144.9725 -81.4375 145.6325 -81.4375 146.3125 C-75.4975 145.3225 -75.4975 145.3225 -69.4375 144.3125 C-68.1175 140.6825 -66.7975 137.0525 -65.4375 133.3125 C-64.7775 133.3125 -64.1175 133.3125 -63.4375 133.3125 C-63.1075 131.6625 -62.7775 130.0125 -62.4375 128.3125 C-61.7775 128.3125 -61.1175 128.3125 -60.4375 128.3125 C-59.7775 126.3325 -59.1175 124.3525 -58.4375 122.3125 C-57.7775 122.3125 -57.1175 122.3125 -56.4375 122.3125 C-56.355 121.69375 -56.2725 121.075 -56.1875 120.4375 C-55.19924558 117.63744581 -54.03390015 117.57136068 -51.4375 116.3125 C-51.17066406 115.71308594 -50.90382813 115.11367187 -50.62890625 114.49609375 C-48.09891694 109.85916252 -42.71134703 107.2354853 -38.4375 104.3125 C-37.73882812 103.80976563 -37.04015625 103.30703125 -36.3203125 102.7890625 C-29.4970466 98.11753191 -21.55203143 96.4090583 -13.4375 95.3125 C-12.48253319 86.03345118 -12.21486027 76.79224956 -12.05307388 67.47439194 C-12.00687132 64.87677216 -11.95401572 62.27936561 -11.8991394 59.68191528 C-11.74347699 52.30700235 -11.5916253 44.9320877 -11.46337891 37.55664062 C-11.38407253 33.02322857 -11.29055406 28.49030389 -11.18755722 23.95737076 C-11.15113801 22.2342379 -11.12010128 20.51098266 -11.09451675 18.78765488 C-11.05841205 16.39162518 -11.00425641 13.99664763 -10.94580078 11.60107422 C-10.93628387 10.53207634 -10.93628387 10.53207634 -10.92657471 9.44148254 C-10.86746216 7.47140503 -10.86746216 7.47140503 -10.4375 4.3125 C-7.4375 2.3125 -7.4375 2.3125 -4.4375 2.3125 C-4.4375 1.6525 -4.4375 0.9925 -4.4375 0.3125 C-2.4375 -0.6875 -2.4375 -0.6875 0 0 Z M2.5625 129.3125 C2.5625 129.6425 2.5625 129.9725 2.5625 130.3125 C4.2125 130.3125 5.8625 130.3125 7.5625 130.3125 C7.5625 129.9825 7.5625 129.6525 7.5625 129.3125 C5.9125 129.3125 4.2625 129.3125 2.5625 129.3125 Z M-19.4375 130.3125 C-19.7675 130.9725 -20.0975 131.6325 -20.4375 132.3125 C-22.75906597 132.71979228 -25.0943787 133.05688677 -27.4375 133.3125 C-27.9015625 134.983125 -27.9015625 134.983125 -28.375 136.6875 C-29.4375 140.3125 -29.4375 140.3125 -30.4375 142.3125 C-30.1075 143.3025 -29.7775 144.2925 -29.4375 145.3125 C-27.520912 145.33962153 -25.6042127 145.35895097 -23.6875 145.375 C-22.62015625 145.38660156 -21.5528125 145.39820313 -20.453125 145.41015625 C-17.88114609 145.32686678 -15.8901274 144.98963843 -13.4375 144.3125 C-12.4475 144.3125 -11.4575 144.3125 -10.4375 144.3125 C-10.4375 143.6525 -10.4375 142.9925 -10.4375 142.3125 C-8.7875 142.3125 -7.1375 142.3125 -5.4375 142.3125 C-5.3446875 140.4253125 -5.3446875 140.4253125 -5.25 138.5 C-5.21519531 137.79230469 -5.18039062 137.08460938 -5.14453125 136.35546875 C-5.29450761 134.25615615 -5.29450761 134.25615615 -6.59375 132.59375 C-9.10592131 130.84800383 -11.09159218 130.80343575 -14.125 130.625 C-15.11886719 130.55925781 -16.11273438 130.49351562 -17.13671875 130.42578125 C-17.89597656 130.38839844 -18.65523438 130.35101563 -19.4375 130.3125 Z M-24.4375 131.3125 C-20.4375 132.3125 -20.4375 132.3125 -20.4375 132.3125 Z M6.3125 131.25 C5.075 131.600625 3.8375 131.95125 2.5625 132.3125 C2.5625 135.2825 2.5625 138.2525 2.5625 141.3125 C9.1182076 144.81904128 15.1381607 146.13279217 22.5625 145.3125 C23.5525 144.6525 24.5425 143.9925 25.5625 143.3125 C25.2325 142.9825 24.9025 142.6525 24.5625 142.3125 C24.17101239 140.80084346 23.82277543 139.27780368 23.5 137.75 C23.32339844 136.92371094 23.14679688 136.09742188 22.96484375 135.24609375 C22.76568359 134.28896484 22.76568359 134.28896484 22.5625 133.3125 C21.325 133.003125 20.0875 132.69375 18.8125 132.375 C14.5625 131.3125 14.5625 131.3125 12.5625 130.6875 C10.17144894 130.23917793 8.64146515 130.59012654 6.3125 131.25 Z M163.5625 144.3125 C167.5625 145.3125 167.5625 145.3125 167.5625 145.3125 Z M189.5625 205.3125 C189.5625 205.6425 189.5625 205.9725 189.5625 206.3125 C191.8725 206.3125 194.1825 206.3125 196.5625 206.3125 C196.5625 205.9825 196.5625 205.6525 196.5625 205.3125 C194.2525 205.3125 191.9425 205.3125 189.5625 205.3125 Z M193.5625 224.3125 C192.26616379 225.37895115 192.26616379 225.37895115 192.5 227.875 C192.520625 228.679375 192.54125 229.48375 192.5625 230.3125 C193.5525 229.9825 194.5425 229.6525 195.5625 229.3125 C195.2325 227.6625 194.9025 226.0125 194.5625 224.3125 C194.2325 224.3125 193.9025 224.3125 193.5625 224.3125 Z M188.5625 226.3125 C189.5625 229.3125 189.5625 229.3125 189.5625 229.3125 Z M194.5625 252.3125 C198.5625 253.3125 198.5625 253.3125 198.5625 253.3125 Z " fill="#252223" transform="translate(401.4375,82.6875)"/>
<path d="M0 0 C2.94182343 1.50678761 3.90935613 2.46753414 5.5625 5.3125 C5.96313477 8.48413086 5.96313477 8.48413086 6.00390625 12.27734375 C6.01643433 12.97048172 6.0289624 13.66361969 6.04187012 14.37776184 C6.06802992 15.88069452 6.08786091 17.38374776 6.1020813 18.88684082 C6.14138493 22.93945887 6.22825505 26.99107509 6.3125 31.04296875 C6.32902115 31.88397125 6.3455423 32.72497375 6.36256409 33.59146118 C6.59268564 44.266541 7.24681343 54.91804088 7.90258789 65.57397461 C8.47824838 75.16651521 8.67195486 84.70317434 8.5625 94.3125 C9.5525 94.6425 10.5425 94.9725 11.5625 95.3125 C11.5625 95.9725 11.5625 96.6325 11.5625 97.3125 C12.3875 97.23 13.2125 97.1475 14.0625 97.0625 C17.94777179 97.34001941 19.97854064 98.39856089 23.328125 100.22265625 C27.22446996 102.12314619 31.38915411 103.18364414 35.5625 104.3125 C35.5625 104.9725 35.5625 105.6325 35.5625 106.3125 C36.325625 106.580625 37.08875 106.84875 37.875 107.125 C40.45238618 108.26384505 41.83204864 109.12666671 43.5625 111.3125 C43.5625 111.9725 43.5625 112.6325 43.5625 113.3125 C44.14386719 113.39242187 44.72523438 113.47234375 45.32421875 113.5546875 C51.20019284 115.54410979 54.88527009 122.82411111 57.56640625 128.1015625 C60.2751266 133.72380045 62.61979618 139.37489638 64.5625 145.3125 C70.00710192 144.90703469 75.45141917 144.49799311 80.89550781 144.08569336 C82.74602049 143.94604729 84.59660609 143.80736392 86.44726562 143.66967773 C89.11348086 143.47114504 91.77941122 143.26910596 94.4453125 143.06640625 C95.26742218 143.0059462 96.08953186 142.94548615 96.93655396 142.88319397 C101.19832642 142.55558743 105.34871822 142.05479431 109.5625 141.3125 C112.25233778 141.11588242 114.93236088 140.94684124 117.625 140.8125 C124.94790489 140.41673213 132.25289759 139.90998055 139.5625 139.3125 C139.5625 138.6525 139.5625 137.9925 139.5625 137.3125 C141.5425 137.3125 143.5225 137.3125 145.5625 137.3125 C145.5625 136.9825 145.5625 136.6525 145.5625 136.3125 C146.67044922 136.32990234 146.67044922 136.32990234 147.80078125 136.34765625 C154.00191409 136.40281245 160.02898225 136.17591509 166.1875 135.43359375 C168.62575797 135.30927468 170.29280286 135.41733928 172.5625 136.3125 C174.5625 139.3125 174.5625 139.3125 174.1875 142 C173.878125 143.1446875 173.878125 143.1446875 173.5625 144.3125 C162.20715548 147.54041519 162.20715548 147.54041519 157.25 147.3125 C153.3765056 147.1758688 149.97838423 147.75170792 146.1875 148.5625 C129.92738605 152.01510256 113.19133714 154.69775556 96.5625 155.3125 C96.5625 155.9725 96.5625 156.6325 96.5625 157.3125 C95.96566406 157.36148438 95.36882812 157.41046875 94.75390625 157.4609375 C85.99965908 158.21538971 77.2847051 159.25929118 68.5625 160.3125 C68.57410156 161.34890625 68.58570313 162.3853125 68.59765625 163.453125 C68.60703837 164.82291486 68.61613812 166.19270668 68.625 167.5625 C68.63337891 168.24441406 68.64175781 168.92632812 68.65039062 169.62890625 C68.66678392 173.00592554 68.61878768 176.08541639 67.5625 179.3125 C71.77427696 180.35442947 75.79260792 180.39881333 80.09887695 180.28149414 C81.21358525 180.25668504 81.21358525 180.25668504 82.35081291 180.23137474 C84.81354663 180.17324993 87.27585601 180.10509012 89.73828125 180.03515625 C90.59476068 180.0123012 91.45124012 179.98944614 92.33367348 179.96589851 C113.7344902 179.38318 135.07870117 177.98649862 156.4375 176.57202148 C176.27373947 175.2595539 195.96755888 174.08547291 215.85571289 174.28491211 C226.97698108 174.37919579 238.09019943 173.90511108 249.20288086 173.51486206 C255.38460473 173.29788056 261.56672033 173.09295345 267.74887848 172.88877296 C269.12636081 172.84324746 270.50383786 172.79756218 271.88130951 172.75171471 C283.40640076 172.36859241 294.93192545 172.05926994 306.46060181 171.80743408 C311.3801006 171.69884148 316.2993464 171.57932237 321.21861267 171.46072388 C324.59734168 171.37991405 327.97588092 171.30462304 331.35498047 171.24023438 C349.01892581 171.57717289 349.01892581 171.57717289 364.171875 163.89453125 C368.33987719 159.44447004 368.33987719 159.44447004 371.5625 154.3125 C372.5525 154.3125 373.5425 154.3125 374.5625 154.3125 C374.5625 153.6525 374.5625 152.9925 374.5625 152.3125 C376.2125 151.9825 377.8625 151.6525 379.5625 151.3125 C379.5625 151.6425 379.5625 151.9725 379.5625 152.3125 C381.2125 152.6425 382.8625 152.9725 384.5625 153.3125 C384.8925 155.6225 385.2225 157.9325 385.5625 160.3125 C384.5725 160.3125 383.5825 160.3125 382.5625 160.3125 C382.42972656 160.93898437 382.29695312 161.56546875 382.16015625 162.2109375 C381.98355469 163.02820313 381.80695312 163.84546875 381.625 164.6875 C381.45097656 165.49960938 381.27695312 166.31171875 381.09765625 167.1484375 C380.5625 169.3125 380.5625 169.3125 379.5625 171.3125 C379.39621094 172.49585938 379.39621094 172.49585938 379.2265625 173.703125 C378.42491907 176.85311213 377.36618157 177.94326435 374.9375 180.0625 C374.28523437 180.65546875 373.63296875 181.2484375 372.9609375 181.859375 C366.71816286 185.64164237 356.90147907 185.03783047 349.796875 185.765625 C348.42104155 185.90746527 347.0452178 186.04939968 345.66940308 186.19142151 C341.98160055 186.57163672 338.29360026 186.94989852 334.60553741 187.3275795 C332.30817487 187.56294311 330.01086194 187.79878559 327.71356201 188.03475952 C307.54227151 190.10613405 287.36821793 192.1472912 267.1875 194.125 C266.18150757 194.22373413 265.17551514 194.32246826 264.13903809 194.42419434 C250.28563306 195.78156376 236.42661864 197.06944064 222.5625 198.3125 C222.5625 199.9625 222.5625 201.6125 222.5625 203.3125 C223.5525 203.3125 224.5425 203.3125 225.5625 203.3125 C225.5625 205.6225 225.5625 207.9325 225.5625 210.3125 C226.2225 210.3125 226.8825 210.3125 227.5625 210.3125 C231.83230966 217.92389983 233.01760638 227.26530465 230.9609375 235.8125 C229.99251521 238.78624116 228.95006587 241.58354037 227.48046875 244.34765625 C226.34179744 246.49243452 226.34179744 246.49243452 226.25 249.875 C225.5625 253.3125 225.5625 253.3125 223.31640625 254.8359375 C222.40761719 255.32320313 221.49882813 255.81046875 220.5625 256.3125 C219.78390625 256.81910156 219.0053125 257.32570313 218.203125 257.84765625 C205.33849802 266.06672349 190.97274245 265.66038371 176.25 262.875 C174.5625 262.3125 174.5625 262.3125 171.5625 260.3125 C171.5625 259.6525 171.5625 258.9925 171.5625 258.3125 C170.634375 257.8484375 170.634375 257.8484375 169.6875 257.375 C168.3125 256.6875 166.9375 256 165.5625 255.3125 C165.2325 254.3225 164.9025 253.3325 164.5625 252.3125 C163.3559375 251.136875 163.3559375 251.136875 162.125 249.9375 C158.84718472 246.57973801 157.6452916 244.17531091 157.4375 239.5 C157.47875 238.778125 157.52 238.05625 157.5625 237.3125 C156.9025 237.3125 156.2425 237.3125 155.5625 237.3125 C155.5625 230.3825 155.5625 223.4525 155.5625 216.3125 C156.2225 216.3125 156.8825 216.3125 157.5625 216.3125 C157.706875 215.384375 157.85125 214.45625 158 213.5 C158.5625 210.3125 158.5625 210.3125 159.5625 207.3125 C160.2225 207.3125 160.8825 207.3125 161.5625 207.3125 C161.5625 206.3225 161.5625 205.3325 161.5625 204.3125 C158.2625 204.6425 154.9625 204.9725 151.5625 205.3125 C151.2325 204.6525 150.9025 203.9925 150.5625 203.3125 C156.93555598 202.56742456 163.14561325 202.20900183 169.5625 202.3125 C169.17578125 202.78558594 168.7890625 203.25867188 168.390625 203.74609375 C160.6048386 213.63250073 158.26486961 221.56361582 159.5625 234.3125 C161.57531818 243.85254355 166.50260669 250.84504627 174.625 256.1875 C183.64153994 261.63936136 194.6357499 261.57114118 204.765625 259.73046875 C212.93162923 257.175676 219.66591871 251.86046556 224.26171875 244.64453125 C228.55338401 236.31943846 230.20551763 227.86579317 227.87890625 218.5859375 C224.51746215 209.57559355 219.51771241 203.56294019 211.5625 198.3125 C211.5625 197.9825 211.5625 197.6525 211.5625 197.3125 C234.88378403 194.81693467 258.21468276 192.41572161 281.54872513 190.04288101 C283.81384349 189.81236328 286.07890998 189.58134188 288.34396362 189.35018921 C302.90090149 187.86521388 317.45719183 186.38710216 332.03125 185.078125 C333.02219666 184.98821289 334.01314331 184.89830078 335.03411865 184.80566406 C339.46994687 184.40392016 343.90611714 184.01233401 348.34472656 183.64257812 C361.787576 182.93139827 361.787576 182.93139827 372.8828125 176.21484375 C375.99026198 172.13913103 377.73643347 167.67278083 379.4375 162.875 C379.74429688 162.04806641 380.05109375 161.22113281 380.3671875 160.36914062 C381.11225513 158.35512968 381.83929944 156.33446607 382.5625 154.3125 C377.41655492 156.20120427 374.74353614 157.67048507 371.5 162.25 C367.70113084 167.30043458 364.64771838 170.28409387 358.5625 172.3125 C355.79343191 172.51411609 353.04146712 172.66571585 350.26855469 172.77734375 C349.42058319 172.81489777 348.57261169 172.85245178 347.69894409 172.8911438 C344.87758675 173.01498376 342.05600548 173.13256075 339.234375 173.25 C337.25025022 173.33552585 335.2661399 173.4213877 333.28204346 173.50756836 C329.09894495 173.68836676 324.91573749 173.86629005 320.73242188 174.04199219 C315.4666978 174.26320415 310.20120795 174.48946371 304.93578339 174.71768188 C265.28855004 176.43435028 265.28855004 176.43435028 245.47235107 176.97094727 C239.79914992 177.13297065 234.15144866 177.39128684 228.48999023 177.79492188 C220.01459241 178.3863725 211.5370819 178.67448851 203.04609108 178.94325256 C200.19768879 179.0335269 197.34941238 179.12714511 194.50114441 179.22155762 C187.4360808 179.45513942 180.37085711 179.68369878 173.30560303 179.91143799 C167.30663128 180.10489924 161.30774864 180.30078261 155.30896568 180.50001526 C152.52414811 180.59154407 149.73923425 180.67956312 146.95429993 180.76745605 C138.94510712 181.02847139 130.97774358 181.35760044 122.99510193 182.09506226 C119.72037395 182.38777331 116.44966552 182.52304664 113.1640625 182.62890625 C111.86984375 182.67088135 110.575625 182.71285645 109.2421875 182.75610352 C107.89063395 182.79603989 106.53907123 182.83566654 105.1875 182.875 C104.14916016 182.90676834 104.14916016 182.90676834 103.08984375 182.93917847 C90.90993004 183.30946158 78.74829489 183.39712358 66.5625 183.3125 C66.5625 175.3925 66.5625 167.4725 66.5625 159.3125 C78.49620317 156.83540956 90.46637988 154.80084113 102.5 152.875 C105.38155627 152.41053208 108.26294674 151.94504475 111.14433289 151.47952271 C113.0302776 151.17490096 114.91627346 150.87059568 116.80232239 150.56661987 C126.56303625 148.99296905 136.31482713 147.36793907 146.06494141 145.72998047 C148.66106918 145.29602363 151.25811822 144.86798017 153.85546875 144.44140625 C154.69456787 144.3031543 155.53366699 144.16490234 156.39819336 144.02246094 C157.94436866 143.76791817 159.49073853 143.51455273 161.03735352 143.26269531 C162.88114818 142.95830045 164.72203829 142.63643777 166.5625 142.3125 C167.76132812 142.11720703 167.76132812 142.11720703 168.984375 141.91796875 C169.50515625 141.71816406 170.0259375 141.51835937 170.5625 141.3125 C170.8925 140.3225 171.2225 139.3325 171.5625 138.3125 C144.31063824 140.91264725 117.08242797 143.58438583 89.90820312 146.90576172 C85.19114894 147.47921562 80.47172455 148.02899685 75.75 148.5625 C73.79126953 148.78679687 73.79126953 148.78679687 71.79296875 149.015625 C69.02223621 149.27025096 66.34173673 149.37602541 63.5625 149.3125 C63.19898438 148.33410156 62.83546875 147.35570312 62.4609375 146.34765625 C55.17169654 127.15240988 43.29839001 112.57008111 24.4921875 103.59765625 C18.63291711 101.02738964 12.93122155 99.12900276 6.5625 98.3125 C5.530574 90.42632798 5.27253881 82.57341978 5.0625 74.62890625 C5.02187543 73.20514321 4.98085174 71.7813915 4.93945312 70.35765076 C4.83155609 66.62138938 4.72762824 62.88503005 4.625 59.14862061 C4.03638252 35.70572432 4.03638252 35.70572432 3.0625 12.27734375 C3.02705078 11.55583633 2.99160156 10.83432892 2.95507812 10.09095764 C3.00791983 6.92086382 3.00791983 6.92086382 1.5625 4.3125 C-1.4375 4.14583333 -1.4375 4.14583333 -4.4375 4.3125 C-6.57565371 6.45065371 -5.81858629 11.20473023 -5.9375 14.171875 C-5.99793236 15.55197754 -5.99793236 15.55197754 -6.05958557 16.95996094 C-6.19063351 19.99394818 -6.31426544 23.02818609 -6.4375 26.0625 C-6.52584646 28.151372 -6.61430755 30.24023916 -6.70288086 32.32910156 C-7.31725651 47.08519864 -7.78836953 61.84270896 -8.09570312 76.60839844 C-8.25511281 83.88383578 -8.52828749 91.08682555 -9.4375 98.3125 C-10.44167969 98.52003906 -11.44585937 98.72757812 -12.48046875 98.94140625 C-26.8427375 102.09672642 -38.00702797 107.71587886 -48.4375 118.3125 C-49.07300781 118.94929688 -49.70851563 119.58609375 -50.36328125 120.2421875 C-58.13762374 128.5509083 -63.02521776 138.54579578 -66.4375 149.3125 C-75.35528382 148.89805171 -84.14849049 148.02661213 -93 146.875 C-100.57574762 145.89113667 -108.13760324 145.01715782 -115.75 144.375 C-127.21374497 143.40453562 -138.6314006 142.06710076 -150.0559082 140.72094727 C-158.1729865 139.76910691 -166.2856936 138.91688171 -174.4375 138.3125 C-174.1075 139.3025 -173.7775 140.2925 -173.4375 141.3125 C-167.16617997 143.31231576 -160.63287033 144.1741216 -154.140625 145.1875 C-153.07060242 145.35749512 -152.00057983 145.52749023 -150.89813232 145.70263672 C-147.49510573 146.24258914 -144.09133877 146.7776938 -140.6875 147.3125 C-137.29812001 147.848378 -133.90889922 148.38525273 -130.51971436 148.92236328 C-128.41834282 149.25501968 -126.31683059 149.58678909 -124.21514893 149.91748047 C-117.28258048 151.01011276 -110.35841994 152.14840107 -103.4375 153.3125 C-103.4375 153.6425 -103.4375 153.9725 -103.4375 154.3125 C-117.39724186 154.81106221 -131.68508501 152.14417065 -145.3125 149.3125 C-152.8362562 147.78100843 -160.54533553 146.24049696 -168.23828125 146.3828125 C-171.4375 146.3125 -171.4375 146.3125 -173.4375 144.3125 C-174.4275 144.3125 -175.4175 144.3125 -176.4375 144.3125 C-176.7675 142.0025 -177.0975 139.6925 -177.4375 137.3125 C-173.90193432 134.95545621 -173.12559613 135.19094076 -169.0546875 135.73828125 C-167.97767578 135.87516357 -166.90066406 136.0120459 -165.79101562 136.15307617 C-164.64310547 136.30881104 -163.49519531 136.4645459 -162.3125 136.625 C-148.67255176 138.34125381 -135.20283305 139.53099735 -121.4375 139.3125 C-121.4375 139.9725 -121.4375 140.6325 -121.4375 141.3125 C-117.4775 141.3125 -113.5175 141.3125 -109.4375 141.3125 C-109.4375 141.6425 -109.4375 141.9725 -109.4375 142.3125 C-108.60605469 142.30089844 -107.77460938 142.28929687 -106.91796875 142.27734375 C-105.83128906 142.26832031 -104.74460937 142.25929687 -103.625 142.25 C-102.54605469 142.23839844 -101.46710938 142.22679687 -100.35546875 142.21484375 C-97.4375 142.3125 -97.4375 142.3125 -94.4375 143.3125 C-92.96281402 143.53248078 -91.48265933 143.71748307 -90 143.875 C-89.23816406 143.95878906 -88.47632813 144.04257813 -87.69140625 144.12890625 C-85.61275731 144.29822427 -83.52303351 144.3125 -81.4375 144.3125 C-81.4375 144.9725 -81.4375 145.6325 -81.4375 146.3125 C-75.4975 145.3225 -75.4975 145.3225 -69.4375 144.3125 C-68.1175 140.6825 -66.7975 137.0525 -65.4375 133.3125 C-64.7775 133.3125 -64.1175 133.3125 -63.4375 133.3125 C-63.1075 131.6625 -62.7775 130.0125 -62.4375 128.3125 C-61.7775 128.3125 -61.1175 128.3125 -60.4375 128.3125 C-59.7775 126.3325 -59.1175 124.3525 -58.4375 122.3125 C-57.7775 122.3125 -57.1175 122.3125 -56.4375 122.3125 C-56.355 121.69375 -56.2725 121.075 -56.1875 120.4375 C-55.19924558 117.63744581 -54.03390015 117.57136068 -51.4375 116.3125 C-51.17066406 115.71308594 -50.90382813 115.11367187 -50.62890625 114.49609375 C-48.09891694 109.85916252 -42.71134703 107.2354853 -38.4375 104.3125 C-37.73882812 103.80976563 -37.04015625 103.30703125 -36.3203125 102.7890625 C-29.4970466 98.11753191 -21.55203143 96.4090583 -13.4375 95.3125 C-12.48253319 86.03345118 -12.21486027 76.79224956 -12.05307388 67.47439194 C-12.00687132 64.87677216 -11.95401572 62.27936561 -11.8991394 59.68191528 C-11.74347699 52.30700235 -11.5916253 44.9320877 -11.46337891 37.55664062 C-11.38407253 33.02322857 -11.29055406 28.49030389 -11.18755722 23.95737076 C-11.15113801 22.2342379 -11.12010128 20.51098266 -11.09451675 18.78765488 C-11.05841205 16.39162518 -11.00425641 13.99664763 -10.94580078 11.60107422 C-10.93945618 10.88840897 -10.93311157 10.17574371 -10.92657471 9.44148254 C-10.86746216 7.47140503 -10.86746216 7.47140503 -10.4375 4.3125 C-7.4375 2.3125 -7.4375 2.3125 -4.4375 2.3125 C-4.4375 1.6525 -4.4375 0.9925 -4.4375 0.3125 C-2.4375 -0.6875 -2.4375 -0.6875 0 0 Z M163.5625 144.3125 C167.5625 145.3125 167.5625 145.3125 167.5625 145.3125 Z " fill="#F6F5F6" transform="translate(401.4375,82.6875)"/>
<path d="M0 0 C7.46369488 4.96551602 12.0023582 10.31060441 13.890625 19.2578125 C14.61915448 27.5630486 12.21428237 34.52587794 7.828125 41.5703125 C0.55253241 48.22670572 -6.36739657 51.12277017 -16.25488281 50.89794922 C-24.65663757 50.36957488 -30.38624283 47.43896263 -36.046875 41.3203125 C-41.76440978 34.47893796 -42.6586144 28.64104849 -42.453125 19.890625 C-41.75098187 12.47024873 -38.41938456 7.76928877 -32.99609375 2.80078125 C-24.05619102 -4.51031932 -10.29116454 -5.61693332 0 0 Z " fill="#272325" transform="translate(219.109375,286.7421875)"/>
<path d="M0 0 C6.04560637 4.12841991 11.79662907 9.95397712 13.9375 17.0625 C14.77473792 24.85321915 15.04978745 32.41598635 10.55078125 39.1328125 C5.76880896 44.85265345 0.45667573 49.7278761 -7.0625 51.0625 C-15.47098128 51.80089572 -23.03270563 52.15826004 -30.0625 47.0625 C-31.6403125 46.010625 -31.6403125 46.010625 -33.25 44.9375 C-39.01975458 39.87714148 -41.81518129 31.77228072 -42.3125 24.3125 C-42.21003688 17.42185488 -39.3418957 11.38282979 -35.0625 6.0625 C-25.7520162 -2.11351309 -11.69217146 -5.93823069 0 0 Z M-18.0625 2.0625 C-18.0625 2.3925 -18.0625 2.7225 -18.0625 3.0625 C-15.7525 3.0625 -13.4425 3.0625 -11.0625 3.0625 C-11.0625 2.7325 -11.0625 2.4025 -11.0625 2.0625 C-13.3725 2.0625 -15.6825 2.0625 -18.0625 2.0625 Z M-14.0625 21.0625 C-15.35883621 22.12895115 -15.35883621 22.12895115 -15.125 24.625 C-15.104375 25.429375 -15.08375 26.23375 -15.0625 27.0625 C-14.0725 26.7325 -13.0825 26.4025 -12.0625 26.0625 C-12.3925 24.4125 -12.7225 22.7625 -13.0625 21.0625 C-13.3925 21.0625 -13.7225 21.0625 -14.0625 21.0625 Z M-19.0625 23.0625 C-18.0625 26.0625 -18.0625 26.0625 -18.0625 26.0625 Z M-13.0625 49.0625 C-9.0625 50.0625 -9.0625 50.0625 -9.0625 50.0625 Z " fill="#272224" transform="translate(609.0625,285.9375)"/>
<path d="M0 0 C1.58294782 -0.05437607 3.16644256 -0.09296271 4.75 -0.125 C5.63171875 -0.14820313 6.5134375 -0.17140625 7.421875 -0.1953125 C10.1135858 0.00860498 11.69904974 0.63448279 14 2 C14 2.66 14 3.32 14 4 C14.66 4 15.32 4 16 4 C17.7265625 5.8984375 17.7265625 5.8984375 19.625 8.375 C20.57246094 9.59316406 20.57246094 9.59316406 21.5390625 10.8359375 C23 13 23 13 23 15 C24.485 15.09087891 24.485 15.09087891 26 15.18359375 C27.33334144 15.26810131 28.66667433 15.352744 30 15.4375 C31.90494792 15.55655924 33.80989583 15.67561849 35.71484375 15.79467773 C37.68594268 15.97178182 39.65043349 16.21980356 41.6121521 16.48106384 C45.90142752 17.01852418 50.17397396 17.30512683 54.49072266 17.50830078 C55.3395936 17.54925432 56.18846455 17.59020786 57.06305885 17.63240242 C69.24528275 18.18582379 81.43804405 18.45352778 93.62855148 18.75481796 C98.27635547 18.86981282 102.92402615 18.98971142 107.57168579 19.11038208 C120.77729852 19.45267142 133.98300048 19.79116593 147.18896484 20.11962891 C180.88180537 20.95919141 214.56134171 21.87751794 248.2265625 23.5078125 C249.47339184 23.56743038 250.72022118 23.62704826 252.00483322 23.68847275 C265.54521057 24.3445937 279.05627585 25.14727976 292.55910683 26.36471748 C303.90675215 27.66506816 303.90675215 27.66506816 315 26 C315.21802745 19.98001986 315.28020848 14.64051572 313 9 C312.01 8.67 311.02 8.34 310 8 C310 7.34 310 6.68 310 6 C308.68 6.33 307.36 6.66 306 7 C306 6.34 306 5.68 306 5 C305.18015625 4.95101562 304.3603125 4.90203125 303.515625 4.8515625 C302.43796875 4.77679688 301.3603125 4.70203125 300.25 4.625 C299.18265625 4.55539063 298.1153125 4.48578125 297.015625 4.4140625 C294.19793568 4.0271777 292.4169634 3.44313834 290 2 C299.55258323 2.5246684 308.63154069 4.14246065 318 6 C318 13.92 318 21.84 318 30 C300.87739145 30.12541832 283.80948718 29.6696009 266.70215559 29.0232861 C262.98704981 28.88366624 259.2717883 28.74830299 255.55654907 28.61228943 C249.33560704 28.38390318 243.11479019 28.15233004 236.89404297 27.91870117 C229.73556576 27.64988837 222.57692115 27.38595798 215.41816652 27.12464482 C208.47155701 26.87098459 201.52506873 26.61414236 194.57863235 26.35578728 C191.64678016 26.24678257 188.71489266 26.13881345 185.78297043 26.03170967 C181.68770645 25.88191563 177.59263158 25.72743744 173.49755859 25.57250977 C172.30356445 25.52935135 171.10957031 25.48619293 169.87939453 25.44172668 C163.48605592 25.19570841 157.13425589 24.78720799 150.76124763 24.22497272 C146.80419531 23.90257178 142.85152877 23.75586351 138.88378906 23.64282227 C138.05561676 23.61662811 137.22744446 23.59043396 136.37417603 23.56344604 C134.59672381 23.50756291 132.81922808 23.45304952 131.04169464 23.3998127 C128.19221686 23.31420072 125.34290218 23.22427515 122.49359131 23.13328552 C114.39825272 22.87551698 106.30269157 22.62512678 98.20703125 22.37768555 C58.67883859 21.1649736 58.67883859 21.1649736 41.6080246 20.20445061 C39.61866864 20.09383572 37.62870033 19.99440834 35.63873291 19.895401 C22.42618515 19.08421186 22.42618515 19.08421186 16.92578125 14.1328125 C16.39339844 13.47023437 15.86101563 12.80765625 15.3125 12.125 C14.73242188 11.42375 14.15234375 10.7225 13.5546875 10 C12.31283266 8.40243799 11.11699328 6.76914215 9.9375 5.125 C7.52788503 2.48219648 5.37618178 2.01697742 2 1 C3.15352629 4.2215599 4.35370591 7.42381049 5.5625 10.625 C5.88541016 11.52863281 6.20832031 12.43226563 6.54101562 13.36328125 C9.22283794 20.36156044 12.46953959 24.81731632 19.3046875 28.11035156 C22.46952473 29.15497718 25.33618193 29.45575816 28.66015625 29.7109375 C29.30985886 29.76380417 29.95956146 29.81667084 30.62895203 29.87113953 C32.03578951 29.98536261 33.44289454 30.09632788 34.85021973 30.20437622 C38.66865137 30.49887563 42.48471977 30.82094163 46.30078125 31.14453125 C47.09507538 31.21165817 47.88936951 31.2787851 48.70773315 31.34794617 C57.40593793 32.09748221 66.07672823 33.06991723 74.75 34.0625 C87.81993898 35.55330383 100.89004656 36.90269112 114 38 C114 38.33 114 38.66 114 39 C103.03044926 39.26312255 92.34958324 38.452667 81.44921875 37.35546875 C79.6971983 37.18299558 77.94514791 37.01082642 76.19306946 36.83894348 C72.54774378 36.47959358 68.90299116 36.11498377 65.25854492 35.74682617 C60.60879501 35.27777827 55.95765065 34.82459232 51.30592632 34.37560558 C47.69764271 34.0251234 44.09037185 33.66497274 40.48331642 33.30208778 C38.76898059 33.13101121 37.05431856 32.9631688 35.33933067 32.79875755 C17.69878245 31.09874065 17.69878245 31.09874065 11 28 C9.9058075 26.02360535 9.9058075 26.02360535 9 24 C8.34 23.34 7.68 22.68 7 22 C5.3125 19.0625 5.3125 19.0625 4 16 C4.33 15.01 4.66 14.02 5 13 C4.01 13 3.02 13 2 13 C2 11.02 2 9.04 2 7 C1.01 6.67 0.02 6.34 -1 6 C-0.67 4.02 -0.34 2.04 0 0 Z " fill="#EFEFEF" transform="translate(14,236)"/>
<path d="M0 0 C6.04560637 4.12841991 11.79662907 9.95397712 13.9375 17.0625 C14.77473792 24.85321915 15.04978745 32.41598635 10.55078125 39.1328125 C5.76880896 44.85265345 0.45667573 49.7278761 -7.0625 51.0625 C-15.47098128 51.80089572 -23.03270563 52.15826004 -30.0625 47.0625 C-31.6403125 46.010625 -31.6403125 46.010625 -33.25 44.9375 C-39.01975458 39.87714148 -41.81518129 31.77228072 -42.3125 24.3125 C-42.21003688 17.42185488 -39.3418957 11.38282979 -35.0625 6.0625 C-25.7520162 -2.11351309 -11.69217146 -5.93823069 0 0 Z M-18.0625 2.0625 C-18.0625 2.3925 -18.0625 2.7225 -18.0625 3.0625 C-15.7525 3.0625 -13.4425 3.0625 -11.0625 3.0625 C-11.0625 2.7325 -11.0625 2.4025 -11.0625 2.0625 C-13.3725 2.0625 -15.6825 2.0625 -18.0625 2.0625 Z M-31.87109375 13.28125 C-35.37055124 18.51322579 -35.81072791 22.84285548 -35.0625 29.0625 C-33.02454938 35.74373583 -29.11645323 39.49499629 -23.3046875 43.17578125 C-20.20972932 44.39974555 -17.50730335 44.36429096 -14.1875 44.375 C-12.99382813 44.39175781 -11.80015625 44.40851563 -10.5703125 44.42578125 C-4.19668728 43.76570648 -0.17378724 40.84048247 3.9375 36.0625 C7.81670005 30.57811372 7.8376847 24.53363909 6.9375 18.0625 C4.38330993 11.31681855 -0.17533522 8.16367015 -6.375 4.8125 C-16.50006487 1.9869005 -25.38310677 5.14816091 -31.87109375 13.28125 Z M-13.0625 49.0625 C-9.0625 50.0625 -9.0625 50.0625 -9.0625 50.0625 Z " fill="#F6F5F5" transform="translate(609.0625,285.9375)"/>
<path d="M0 0 C7.46369488 4.96551602 12.0023582 10.31060441 13.890625 19.2578125 C14.61915448 27.5630486 12.21428237 34.52587794 7.828125 41.5703125 C0.55253241 48.22670572 -6.36739657 51.12277017 -16.25488281 50.89794922 C-24.65663757 50.36957488 -30.38624283 47.43896263 -36.046875 41.3203125 C-41.76440978 34.47893796 -42.6586144 28.64104849 -42.453125 19.890625 C-41.75098187 12.47024873 -38.41938456 7.76928877 -32.99609375 2.80078125 C-24.05619102 -4.51031932 -10.29116454 -5.61693332 0 0 Z M-31.609375 10.8203125 C-35.59192581 17.29195757 -35.97222294 22.66475059 -35.109375 30.2578125 C-33.21408171 35.79383196 -29.48043021 39.53959778 -24.40625 42.34375 C-18.14123358 44.83697082 -12.1533245 44.96584233 -5.796875 42.7578125 C0.24576827 39.99106964 4.37161292 35.39648608 6.890625 29.2578125 C7.8259506 22.15586347 7.23632748 16.97584208 2.890625 11.2578125 C-2.43343399 5.93375351 -7.63840698 3.70567934 -14.984375 2.7578125 C-21.36732869 3.02271769 -27.22970329 6.33114899 -31.609375 10.8203125 Z " fill="#F7F6F7" transform="translate(219.109375,286.7421875)"/>
<path d="M0 0 C2.86724686 0.57344937 3.8614515 0.8614515 6 3 C6 2.34 6 1.68 6 1 C9 2 9 2 10.16796875 3.86328125 C14.1713425 13.4805814 14.42863669 22.61663749 10.45703125 32.328125 C5.68016884 41.08784052 -1.78891577 47.87436195 -11.21875 51.1015625 C-20.00388123 53.18893872 -30.99519361 53.72490276 -39.0859375 49.2578125 C-40.03339844 48.63519531 -40.03339844 48.63519531 -41 48 C-41.69351563 47.56429687 -42.38703125 47.12859375 -43.1015625 46.6796875 C-49.98449676 41.96217076 -55.11705798 35.77674599 -57.54296875 27.71875 C-58.52548043 21.87406513 -58.20996264 15.90228313 -58 10 C-54.91190305 8.23537317 -53.76687864 8 -50 8 C-50.33 7.01 -50.66 6.02 -51 5 C-50.34 4.67 -49.68 4.34 -49 4 C-48 7 -48 7 -48.9375 10.1875 C-51.32547476 18.75611532 -49.60385302 25.05400464 -46 33 C-42.63892692 38.52176291 -37.06716957 41.97761014 -31 44 C-20.11050403 44.79647393 -11.99279423 44.03471092 -3.1875 37.25 C2.75859419 31.64960896 4.24883729 26.65873694 4.5 18.5 C4.34850498 12.16245813 3.28928176 8.34508286 0 3 C0 2.01 0 1.02 0 0 Z " fill="#292728" transform="translate(618,292)"/>
<path d="M0 0 C-5.8826127 5.8826127 -21.47318605 4.73688472 -29.5078125 5.515625 C-30.89880052 5.65313011 -32.28975526 5.79097235 -33.68067932 5.92912292 C-36.63217324 6.22165039 -39.58386187 6.51208628 -42.53573608 6.80075073 C-47.17625236 7.2545645 -51.81632274 7.71281869 -56.45629883 8.17211914 C-57.23644002 8.24933858 -58.01658121 8.32655802 -58.82036304 8.40611744 C-60.40544032 8.56302063 -61.99051601 8.71993985 -63.57559013 8.87687492 C-65.97224088 9.11401316 -68.36893681 9.3506905 -70.76564026 9.58729553 C-81.38869568 10.63685267 -92.00955787 11.70656767 -102.62890625 12.79296875 C-103.31944344 12.8635638 -104.00998062 12.93415886 -104.72144318 13.00689316 C-110.66532442 13.61463378 -116.60908193 14.22356981 -122.55255127 14.83532715 C-126.12214897 15.20264493 -129.69191928 15.5682431 -133.26171875 15.93359375 C-134.31460587 16.0426152 -135.36749298 16.15163666 -136.45228577 16.26396179 C-137.8887571 16.41065056 -137.8887571 16.41065056 -139.35424805 16.56030273 C-140.59974678 16.68851662 -140.59974678 16.68851662 -141.8704071 16.81932068 C-144 17 -144 17 -147 17 C-147 18.65 -147 20.3 -147 22 C-146.01 22 -145.02 22 -144 22 C-144 24.31 -144 26.62 -144 29 C-143.34 29 -142.68 29 -142 29 C-137.73019034 36.61139983 -136.54489362 45.95280465 -138.6015625 54.5 C-139.56998479 57.47374116 -140.61243413 60.27104037 -142.08203125 63.03515625 C-143.22070256 65.17993452 -143.22070256 65.17993452 -143.3125 68.5625 C-144 72 -144 72 -146.24609375 73.5234375 C-147.15488281 74.01070313 -148.06367187 74.49796875 -149 75 C-149.77859375 75.50660156 -150.5571875 76.01320313 -151.359375 76.53515625 C-164.22400198 84.75422349 -178.58975755 84.34788371 -193.3125 81.5625 C-195 81 -195 81 -198 79 C-198 78.34 -198 77.68 -198 77 C-198.61875 76.690625 -199.2375 76.38125 -199.875 76.0625 C-201.25 75.375 -202.625 74.6875 -204 74 C-204.33 73.01 -204.66 72.02 -205 71 C-205.804375 70.21625 -206.60875 69.4325 -207.4375 68.625 C-210.71531528 65.26723801 -211.9172084 62.86281091 -212.125 58.1875 C-212.08375 57.465625 -212.0425 56.74375 -212 56 C-212.66 56 -213.32 56 -214 56 C-214 49.07 -214 42.14 -214 35 C-213.34 35 -212.68 35 -212 35 C-211.855625 34.071875 -211.71125 33.14375 -211.5625 32.1875 C-211 29 -211 29 -210 26 C-209.34 26 -208.68 26 -208 26 C-208 25.01 -208 24.02 -208 23 C-212.95 23.495 -212.95 23.495 -218 24 C-218.33 23.34 -218.66 22.68 -219 22 C-212.62694402 21.25492456 -206.41688675 20.89650183 -200 21 C-200.38671875 21.47308594 -200.7734375 21.94617188 -201.171875 22.43359375 C-208.9576614 32.32000073 -211.29763039 40.25111582 -210 53 C-207.98718182 62.54004355 -203.05989331 69.53254627 -194.9375 74.875 C-185.92096006 80.32686136 -174.9267501 80.25864118 -164.796875 78.41796875 C-156.63087077 75.863176 -149.89658129 70.54796556 -145.30078125 63.33203125 C-141.00911599 55.00693846 -139.35698237 46.55329317 -141.68359375 37.2734375 C-145.04503785 28.26309355 -150.04478759 22.25044019 -158 17 C-158 16.67 -158 16.34 -158 16 C-134.67858211 13.50442034 -111.347609 11.10244297 -88.01337051 8.73017883 C-85.74907461 8.49990589 -83.48481056 8.26932169 -81.22055054 8.03869629 C-66.63852236 6.55423057 -52.05648098 5.07711011 -37.4609375 3.73046875 C-36.46525757 3.63819 -35.46957764 3.54591125 -34.44372559 3.45083618 C-29.97728887 3.03809942 -25.51039607 2.6330496 -21.04199219 2.2421875 C-19.50975028 2.10303341 -17.97752267 1.96372181 -16.4453125 1.82421875 C-15.16156738 1.71166748 -13.87782227 1.59911621 -12.55517578 1.4831543 C-8.91393017 1.07684925 -8.91393017 1.07684925 -5.15966797 -0.11401367 C-2 -1 -2 -1 0 0 Z " fill="#E5E5E5" transform="translate(771,264)"/>
<path d="M0 0 C6.71277694 -0.11235706 13.26968688 0.18394902 19.9453125 0.875 C20.84120087 0.96378418 21.73708923 1.05256836 22.66012573 1.14404297 C25.48223239 1.42477044 28.30360066 1.71225975 31.125 2 C33.05464247 2.1931587 34.98432968 2.38587104 36.9140625 2.578125 C41.60990726 3.04693191 46.30510304 3.52179839 51 4 C48.53319568 6.47913834 46.06764062 8.93743243 43.5 11.3125 C36.47046034 18.86925513 33.45659617 26.51704211 33.69921875 36.84765625 C34.67307791 47.05420611 39.42108287 54.26992159 47 61 C56.41520302 67.63794703 66.8035701 68.01383908 78 67 C81.43152265 66.17170143 84.05852953 64.92696331 87 63 C88.04027344 62.36384766 88.04027344 62.36384766 89.1015625 61.71484375 C95.50165924 57.41215699 99.39241732 51.79974087 102.375 44.75 C103.99656143 35.02063141 104.10682043 25.18162034 98.5 16.7421875 C97.46228338 15.3502503 96.39920662 13.97663502 95.3046875 12.62890625 C94 11 94 11 93 9 C108.10352925 9.52771367 123.00751444 11.13405782 138 13 C138 13.33 138 13.66 138 14 C130.91844181 14.11330493 124.12731968 13.55859977 117.10546875 12.7109375 C111.69800838 12.09142486 106.44394905 11.91289682 101 12 C101.34933594 12.79019531 101.69867188 13.58039063 102.05859375 14.39453125 C106.17842997 24.60658987 106.87157097 34.04850673 107 45 C106.34 45 105.68 45 105 45 C104.9175 45.99 104.835 46.98 104.75 48 C103.76205597 54.13760227 102.20888846 58.23351233 97.23046875 62.21484375 C84.91207068 70.29559598 71.86037821 71.6868247 57.328125 69.4296875 C51.12323268 68.0960568 45.52775214 66.87640761 41.1875 61.9375 C40 60 40 60 40 58 C39.401875 57.79375 38.80375 57.5875 38.1875 57.375 C34.55517956 55.09182715 33.45954829 51.77167958 32.40625 47.7109375 C32.06302291 46.16136813 31.73629226 44.60801071 31.4296875 43.05078125 C31.00235086 40.81545298 31.00235086 40.81545298 30 38 C29.54913513 26.75655718 31.93810132 19.38565513 38 10 C38.66 10 39.32 10 40 10 C40 8.68 40 7.36 40 6 C38.35 6 36.7 6 35 6 C35 5.34 35 4.68 35 4 C33.47246094 3.92652344 33.47246094 3.92652344 31.9140625 3.8515625 C21.22006605 3.29932631 10.63011377 2.28058681 0 1 C0 0.67 0 0.34 0 0 Z " fill="#F2F1F1" transform="translate(136,276)"/>
<path d="M0 0 C7.87683813 -0.29912044 15.59690757 0.22190572 23.4375 0.9375 C24.39672363 1.02435059 25.35594727 1.11120117 26.34423828 1.20068359 C33.35437538 1.86755262 33.35437538 1.86755262 36.44799805 2.50219727 C39.21048033 3.04105706 41.90436727 3.29255181 44.7109375 3.5 C45.79117188 3.5825 46.87140625 3.665 47.984375 3.75 C49.10328125 3.8325 50.2221875 3.915 51.375 4 C54.64481479 4.24277047 57.91303654 4.49055585 61.17993164 4.77001953 C63.43560003 4.9539724 65.69620424 5.07702408 67.95703125 5.1796875 C72.12538531 6.3033773 73.8686045 8.78554695 76.3125 12.125 C85.99833194 24.38527238 100.4041553 32.82090392 116 35 C135.15013791 36.70438999 153.18742864 32.50500793 168.3125 20.1875 C172.05189115 17.01860571 174.59728391 14.20576701 177.0625 10 C179.42246014 6.70419359 181.34921602 5.72049718 185.2265625 4.99609375 C190.13839331 4.34374893 195.04957418 4.10938441 200 4 C201.93359375 3.95166016 201.93359375 3.95166016 203.90625 3.90234375 C206.60985439 3.87981371 209.29843462 3.90293777 212 4 C212 4.33 212 4.66 212 5 C211.18732666 5.08040527 210.37465332 5.16081055 209.53735352 5.24365234 C205.87802571 5.61113158 202.22032525 5.99286657 198.5625 6.375 C196.6434082 6.56449219 196.6434082 6.56449219 194.68554688 6.7578125 C192.86313477 6.95117188 192.86313477 6.95117188 191.00390625 7.1484375 C189.87799072 7.26364746 188.7520752 7.37885742 187.59204102 7.49755859 C186.73666748 7.66336426 185.88129395 7.82916992 185 8 C184.67 8.66 184.34 9.32 184 10 C183.34 10 182.68 10 182 10 C181.938125 10.5775 181.87625 11.155 181.8125 11.75 C180.67030797 14.91299331 178.66857627 16.01408277 176 18 C175.278125 18.7425 174.55625 19.485 173.8125 20.25 C172 22 172 22 170 22 C169.67 22.99 169.34 23.98 169 25 C155.43802306 35.0100306 143.04737109 37.19028662 126.5625 37.125 C125.58990234 37.12886719 124.61730469 37.13273437 123.61523438 37.13671875 C115.19216541 37.12546548 106.94769578 37.02769363 99 34 C97.67088318 33.65023242 96.33917261 33.30903983 95 33 C95 32.34 95 31.68 95 31 C94.36191406 30.81824219 93.72382813 30.63648438 93.06640625 30.44921875 C92.24011719 30.19785156 91.41382813 29.94648438 90.5625 29.6875 C89.73878906 29.44386719 88.91507812 29.20023437 88.06640625 28.94921875 C87.38449219 28.63597656 86.70257813 28.32273437 86 28 C85.505 26.515 85.505 26.515 85 25 C84.34 25 83.68 25 83 25 C83 24.34 83 23.68 83 23 C81.515 22.505 81.515 22.505 80 22 C80 21.34 80 20.68 80 20 C79.401875 19.731875 78.80375 19.46375 78.1875 19.1875 C76.00152146 18.00082594 74.58667406 16.90400887 73 15 C73 14.34 73 13.68 73 13 C72.34 13 71.68 13 71 13 C69.97803008 12.02246356 68.98020375 11.0194119 68 10 C64.59032606 7.72688404 62.73078389 7.55215151 58.69262695 7.13037109 C57.39150467 6.99037689 56.09038239 6.85038269 54.74983215 6.70614624 C53.32933319 6.56173279 51.90881577 6.41750081 50.48828125 6.2734375 C49.03517638 6.12007747 47.5821487 5.96598435 46.12919617 5.81118774 C42.30769624 5.40603959 38.48522874 5.01085965 34.66247559 4.61773682 C30.76067944 4.21470728 26.85987901 3.80227261 22.95898438 3.390625 C15.30693377 2.5845345 7.65383675 1.78897072 0 1 C0 0.67 0 0.34 0 0 Z " fill="#EEEDEE" transform="translate(274,290)"/>
<path d="M0 0 C2.98485108 1.52882616 3.93125487 2.38839853 5.5625 5.3125 C5.81923097 8.14592655 5.91255816 10.7508719 5.85546875 13.578125 C5.85122391 14.37152283 5.84697906 15.16492065 5.84260559 15.98236084 C5.8258504 18.5094232 5.78820506 21.03567983 5.75 23.5625 C5.73494903 25.27863429 5.72126134 26.99478112 5.70898438 28.7109375 C5.67595735 32.91176746 5.62419765 37.11199725 5.5625 41.3125 C5.2325 41.3125 4.9025 41.3125 4.5625 41.3125 C4.50715088 40.22718994 4.45180176 39.14187988 4.39477539 38.02368164 C4.18889936 34.01105615 3.97686791 29.99877585 3.76293945 25.98657227 C3.67107906 24.24740295 3.58090604 22.50814368 3.49243164 20.76879883 C3.36524011 18.27399735 3.2320562 15.77957845 3.09765625 13.28515625 C3.05906998 12.50286148 3.0204837 11.72056671 2.98072815 10.91456604 C3.09618742 7.31122214 3.09618742 7.31122214 1.5625 4.3125 C-1.4375 4.14583333 -1.4375 4.14583333 -4.4375 4.3125 C-6.57565371 6.45065371 -5.81858629 11.20473023 -5.9375 14.171875 C-5.97778824 15.09194336 -6.01807648 16.01201172 -6.05958557 16.95996094 C-6.19063351 19.99394818 -6.31426544 23.02818609 -6.4375 26.0625 C-6.52584646 28.151372 -6.61430755 30.24023916 -6.70288086 32.32910156 C-7.31725651 47.08519864 -7.78836953 61.84270896 -8.09570312 76.60839844 C-8.25529234 83.89202989 -8.57885048 91.07429742 -9.4375 98.3125 C-15.3775 99.3025 -15.3775 99.3025 -21.4375 100.3125 C-20.7775 98.9925 -20.1175 97.6725 -19.4375 96.3125 C-16.3125 95.5625 -16.3125 95.5625 -13.4375 95.3125 C-12.48253319 86.03345118 -12.21486027 76.79224956 -12.05307388 67.47439194 C-12.00687132 64.87677216 -11.95401572 62.27936561 -11.8991394 59.68191528 C-11.74347699 52.30700235 -11.5916253 44.9320877 -11.46337891 37.55664062 C-11.38407253 33.02322857 -11.29055406 28.49030389 -11.18755722 23.95737076 C-11.15113801 22.2342379 -11.12010128 20.51098266 -11.09451675 18.78765488 C-11.05841205 16.39162518 -11.00425641 13.99664763 -10.94580078 11.60107422 C-10.93945618 10.88840897 -10.93311157 10.17574371 -10.92657471 9.44148254 C-10.86746216 7.47140503 -10.86746216 7.47140503 -10.4375 4.3125 C-7.4375 2.3125 -7.4375 2.3125 -4.4375 2.3125 C-4.4375 1.6525 -4.4375 0.9925 -4.4375 0.3125 C-2.4375 -0.6875 -2.4375 -0.6875 0 0 Z " fill="#F9F8F8" transform="translate(401.4375,82.6875)"/>
<path d="M0 0 C-0.38671875 0.47308594 -0.7734375 0.94617188 -1.171875 1.43359375 C-8.9576614 11.32000073 -11.29763039 19.25111582 -10 32 C-8.02801001 41.34653244 -3.19376561 48.30655559 4.625 53.75 C9.99164107 56.87877296 16.0452284 58.37514616 22 60 C20 62 20 62 16.8828125 62.08203125 C15.02269531 61.94861328 15.02269531 61.94861328 13.125 61.8125 C11.89007812 61.73644531 10.65515625 61.66039062 9.3828125 61.58203125 C5.97855155 60.99630968 4.40458399 60.43479233 2 58 C2 57.34 2 56.68 2 56 C1.38125 55.690625 0.7625 55.38125 0.125 55.0625 C-1.25 54.375 -2.625 53.6875 -4 53 C-4.495 51.515 -4.495 51.515 -5 50 C-5.804375 49.21625 -6.60875 48.4325 -7.4375 47.625 C-10.71531528 44.26723801 -11.9172084 41.86281091 -12.125 37.1875 C-12.08375 36.465625 -12.0425 35.74375 -12 35 C-12.66 35 -13.32 35 -14 35 C-14 28.07 -14 21.14 -14 14 C-13.34 14 -12.68 14 -12 14 C-11.855625 13.071875 -11.71125 12.14375 -11.5625 11.1875 C-11 8 -11 8 -10 5 C-9.34 5 -8.68 5 -8 5 C-8 4.01 -8 3.02 -8 2 C-11.3 2.33 -14.6 2.66 -18 3 C-18.33 2.34 -18.66 1.68 -19 1 C-12.62694402 0.25492456 -6.41688675 -0.10349817 0 0 Z " fill="#F7F7F7" transform="translate(571,285)"/>
<path d="M0 0 C1.07701172 0.13688232 2.15402344 0.27376465 3.26367188 0.41479492 C4.41158203 0.57052979 5.55949219 0.72626465 6.7421875 0.88671875 C20.38213574 2.60297256 33.85185445 3.7927161 47.6171875 3.57421875 C47.6171875 4.23421875 47.6171875 4.89421875 47.6171875 5.57421875 C51.5771875 5.57421875 55.5371875 5.57421875 59.6171875 5.57421875 C59.6171875 6.56421875 59.6171875 7.55421875 59.6171875 8.57421875 C53.15513795 8.68469856 46.94675462 8.29107425 40.53515625 7.515625 C39.59972488 7.40701645 38.66429352 7.2984079 37.70051575 7.18650818 C34.73464932 6.84141721 31.7696508 6.48947757 28.8046875 6.13671875 C24.9026556 5.67699752 21.00028222 5.22027441 17.09765625 4.765625 C16.1718576 4.65747467 15.24605896 4.54932434 14.29220581 4.43789673 C7.7419485 3.68133318 1.19592138 3.03299773 -5.3828125 2.57421875 C-5.0528125 3.56421875 -4.7228125 4.55421875 -4.3828125 5.57421875 C1.88850753 7.57403451 8.42181717 8.43584035 14.9140625 9.44921875 C15.98408508 9.61921387 17.05410767 9.78920898 18.15655518 9.96435547 C21.55958177 10.50430789 24.96334873 11.03941255 28.3671875 11.57421875 C31.75656749 12.11009675 35.14578828 12.64697148 38.53497314 13.18408203 C40.63634468 13.51673843 42.73785691 13.84850784 44.83953857 14.17919922 C51.77210702 15.27183151 58.69626756 16.41011982 65.6171875 17.57421875 C65.6171875 17.90421875 65.6171875 18.23421875 65.6171875 18.57421875 C51.65744564 19.07278096 37.36960249 16.4058894 23.7421875 13.57421875 C16.2184313 12.04272718 8.50935197 10.50221571 0.81640625 10.64453125 C-2.3828125 10.57421875 -2.3828125 10.57421875 -4.3828125 8.57421875 C-5.3728125 8.57421875 -6.3628125 8.57421875 -7.3828125 8.57421875 C-7.7128125 6.26421875 -8.0428125 3.95421875 -8.3828125 1.57421875 C-4.84724682 -0.78282504 -4.07090863 -0.54734049 0 0 Z " fill="#ECECEC" transform="translate(232.3828125,218.42578125)"/>
<path d="M0 0 C1.58294782 -0.05437607 3.16644256 -0.09296271 4.75 -0.125 C5.63171875 -0.14820313 6.5134375 -0.17140625 7.421875 -0.1953125 C10.1135858 0.00860498 11.69904974 0.63448279 14 2 C13.67 3.98 13.34 5.96 13 8 C12.54109375 7.57847656 12.0821875 7.15695313 11.609375 6.72265625 C10.99578125 6.17480469 10.3821875 5.62695312 9.75 5.0625 C9.14671875 4.51722656 8.5434375 3.97195312 7.921875 3.41015625 C5.89552537 1.9233428 4.42187839 1.53061154 2 1 C3.15352629 4.2215599 4.35370591 7.42381049 5.5625 10.625 C5.88541016 11.52863281 6.20832031 12.43226563 6.54101562 13.36328125 C9.22283794 20.36156044 12.46953959 24.81731632 19.3046875 28.11035156 C22.46952473 29.15497718 25.33618193 29.45575816 28.66015625 29.7109375 C29.30985886 29.76380417 29.95956146 29.81667084 30.62895203 29.87113953 C32.03578951 29.98536261 33.44289454 30.09632788 34.85021973 30.20437622 C38.66865137 30.49887563 42.48471977 30.82094163 46.30078125 31.14453125 C47.09507538 31.21165817 47.88936951 31.2787851 48.70773315 31.34794617 C57.40593793 32.09748221 66.07672823 33.06991723 74.75 34.0625 C87.81993898 35.55330383 100.89004656 36.90269112 114 38 C114 38.33 114 38.66 114 39 C103.03044926 39.26312255 92.34958324 38.452667 81.44921875 37.35546875 C79.6971983 37.18299558 77.94514791 37.01082642 76.19306946 36.83894348 C72.54774378 36.47959358 68.90299116 36.11498377 65.25854492 35.74682617 C60.60879501 35.27777827 55.95765065 34.82459232 51.30592632 34.37560558 C47.69764271 34.0251234 44.09037185 33.66497274 40.48331642 33.30208778 C38.76898059 33.13101121 37.05431856 32.9631688 35.33933067 32.79875755 C17.69878245 31.09874065 17.69878245 31.09874065 11 28 C9.9058075 26.02360535 9.9058075 26.02360535 9 24 C8.34 23.34 7.68 22.68 7 22 C5.3125 19.0625 5.3125 19.0625 4 16 C4.33 15.01 4.66 14.02 5 13 C4.01 13 3.02 13 2 13 C2 11.02 2 9.04 2 7 C1.01 6.67 0.02 6.34 -1 6 C-0.67 4.02 -0.34 2.04 0 0 Z " fill="#E9E9E9" transform="translate(14,236)"/>
<path d="M0 0 C5.5660307 0 10.37760662 0.18311257 15.8125 0.9375 C17.09769531 1.11152344 18.38289063 1.28554687 19.70703125 1.46484375 C23 2 23 2 26 3 C27.20864937 5.62903293 28.23021657 8.15678779 29.1875 10.875 C29.46013672 11.60847656 29.73277344 12.34195313 30.01367188 13.09765625 C31.13288046 16.17758363 32 18.69918458 32 22 C31.45698242 21.91435791 30.91396484 21.82871582 30.35449219 21.74047852 C20.24269928 20.15609793 10.21874169 18.67228564 0 18 C0 12.06 0 6.12 0 0 Z M2 1 C2 1.33 2 1.66 2 2 C3.65 2 5.3 2 7 2 C7 1.67 7 1.34 7 1 C5.35 1 3.7 1 2 1 Z M5.75 2.9375 C4.5125 3.288125 3.275 3.63875 2 4 C2 6.97 2 9.94 2 13 C8.5557076 16.50654128 14.5756607 17.82029217 22 17 C22.99 16.34 23.98 15.68 25 15 C24.67 14.67 24.34 14.34 24 14 C23.60851239 12.48834346 23.26027543 10.96530368 22.9375 9.4375 C22.76089844 8.61121094 22.58429688 7.78492188 22.40234375 6.93359375 C22.20318359 5.97646484 22.20318359 5.97646484 22 5 C20.7625 4.690625 19.525 4.38125 18.25 4.0625 C14 3 14 3 12 2.375 C9.60894894 1.92667793 8.07896515 2.27762654 5.75 2.9375 Z " fill="#F1F0F0" transform="translate(402,211)"/>
<path d="M0 0 C0 5.94 0 11.88 0 18 C-3.58875 18.1546875 -3.58875 18.1546875 -7.25 18.3125 C-13.59167533 18.64750251 -19.42694936 19.59250338 -25.546875 21.37890625 C-28 22 -28 22 -32 22 C-29.31701982 8.13793575 -29.31701982 8.13793575 -26 3 C-23.40735054 1.43617969 -20.98420955 1.21693722 -18 1 C-17.27296875 0.89558594 -16.5459375 0.79117188 -15.796875 0.68359375 C-10.44037709 -0.05620229 -5.50846606 0 0 0 Z M-16 2 C-16.33 2.66 -16.66 3.32 -17 4 C-19.32156597 4.40729228 -21.6568787 4.74438677 -24 5 C-24.4640625 6.670625 -24.4640625 6.670625 -24.9375 8.375 C-26 12 -26 12 -27 14 C-26.67 14.99 -26.34 15.98 -26 17 C-24.083412 17.02712153 -22.1667127 17.04645097 -20.25 17.0625 C-19.18265625 17.07410156 -18.1153125 17.08570313 -17.015625 17.09765625 C-14.44364609 17.01436678 -12.4526274 16.67713843 -10 16 C-9.01 16 -8.02 16 -7 16 C-7 15.34 -7 14.68 -7 14 C-5.35 14 -3.7 14 -2 14 C-1.9071875 12.1128125 -1.9071875 12.1128125 -1.8125 10.1875 C-1.77769531 9.47980469 -1.74289062 8.77210938 -1.70703125 8.04296875 C-1.85700761 5.94365615 -1.85700761 5.94365615 -3.15625 4.28125 C-5.66842131 2.53550383 -7.65409218 2.49093575 -10.6875 2.3125 C-11.68136719 2.24675781 -12.67523438 2.18101562 -13.69921875 2.11328125 C-14.45847656 2.07589844 -15.21773438 2.03851563 -16 2 Z M-21 3 C-17 4 -17 4 -17 4 Z " fill="#F2F1F1" transform="translate(398,211)"/>
<path d="M0 0 C0.99 0 1.98 0 3 0 C4.82421875 1.8984375 4.82421875 1.8984375 6.6875 4.375 C7.31011719 5.18710938 7.93273438 5.99921875 8.57421875 6.8359375 C10 9 10 9 10 11 C11.485 11.09087891 11.485 11.09087891 13 11.18359375 C14.33334144 11.26810131 15.66667433 11.352744 17 11.4375 C18.299375 11.51871094 19.59875 11.59992188 20.9375 11.68359375 C23.48618815 11.86223164 25.96237569 12.1288896 28.5 12.46875 C35.29495886 13.35884307 42.16303606 13.64129834 49 14.0625 C50.45704541 14.15407182 51.91407682 14.24586678 53.37109375 14.33789062 C56.91390459 14.56116859 60.45689587 14.78141949 64 15 C64 15.33 64 15.66 64 16 C58.73878298 16.05020245 53.47771154 16.08609045 48.21630859 16.10986328 C46.43405726 16.11979494 44.65182166 16.1333448 42.86962891 16.15087891 C11.28545895 16.45337518 11.28545895 16.45337518 4.625 11.0625 C2.08687639 8.40900714 0.05114247 6.09956313 -0.125 2.3125 C-0.08375 1.549375 -0.0425 0.78625 0 0 Z " fill="#F5F5F5" transform="translate(27,240)"/>
<path d="M0 0 C0.66 0 1.32 0 2 0 C2.29070942 4.97607933 2.57520993 9.95246544 2.85449219 14.92919922 C2.94988126 16.61451282 3.04683085 18.29973899 3.14550781 19.98486328 C3.78958142 31.00640862 4.13792658 41.95821076 4 53 C4.99 53.33 5.98 53.66 7 54 C7 54.66 7 55.32 7 56 C8.175625 55.8453125 8.175625 55.8453125 9.375 55.6875 C14.56630359 56.13502617 18.49132264 58.50507972 23 61 C22.67 61.66 22.34 62.32 22 63 C21.05898438 62.65066406 20.11796875 62.30132812 19.1484375 61.94140625 C17.89072526 61.48149655 16.63290707 61.02187653 15.375 60.5625 C14.14523437 60.11003906 12.91546875 59.65757812 11.6484375 59.19140625 C8.40451332 58.13209482 5.3743785 57.45164758 2 57 C1.09005594 49.75103387 0.69118204 42.5494792 0.4375 35.25 C0.3950415 34.07655029 0.35258301 32.90310059 0.30883789 31.6940918 C-0.04691591 21.12670087 -0.10197979 10.57190534 0 0 Z " fill="#E6E5E6" transform="translate(406,124)"/>
<path d="M0 0 C3.4375 1 3.4375 1 5.4375 2.6875 C6.8315902 5.91133358 6.47755473 7.67182488 5.4375 11 C3.41521281 13.74453261 2.27358732 14.81188035 -1.0625 15.5625 C-3.5625 15 -3.5625 15 -5.875 12.875 C-7.85534835 9.50107319 -8.21704929 7.84547708 -7.5625 4 C-5.27647022 0.43379354 -4.27192374 0 0 0 Z " fill="#F4F3F3" transform="translate(205.5625,303)"/>
<path d="M0 0 C0 0.33 0 0.66 0 1 C-6.435 1.495 -6.435 1.495 -13 2 C-13 3.65 -13 5.3 -13 7 C-12.01 7 -11.02 7 -10 7 C-10 9.31 -10 11.62 -10 14 C-9.34 14 -8.68 14 -8 14 C-3.49962329 22.02241066 -2.5509902 31.74733947 -5 40.625 C-5.33 41.40875 -5.66 42.1925 -6 43 C-6.66 43 -7.32 43 -8 43 C-7.835 42.2575 -7.67 41.515 -7.5 40.75 C-5.96295118 29.22213384 -7.0849392 20.33695048 -13.8125 10.6875 C-16.74927928 6.97709344 -20.06803628 4.59509605 -24 2 C-24 1.67 -24 1.34 -24 1 C-15.97667603 0.09958689 -8.07029553 -0.11547323 0 0 Z " fill="#F4F3F3" transform="translate(637,279)"/>
<path d="M0 0 C1.9375 1.1875 1.9375 1.1875 3 3 C3.5 5.875 3.5 5.875 3 9 C0.875 11.9375 0.875 11.9375 -2 14 C-5.54459212 14.07089184 -7.22015672 13.65406211 -9.9375 11.375 C-11.48427533 7.9175022 -10.92030612 5.61548831 -10 2 C-7.60110246 -2.26470674 -4.26242788 -1.06560697 0 0 Z M-4 3 C-5.29633621 4.06645115 -5.29633621 4.06645115 -5.0625 6.5625 C-5.041875 7.366875 -5.02125 8.17125 -5 9 C-4.01 8.67 -3.02 8.34 -2 8 C-2.33 6.35 -2.66 4.7 -3 3 C-3.33 3 -3.66 3 -4 3 Z M-9 5 C-8 8 -8 8 -8 8 Z " fill="#F2F1F1" transform="translate(599,304)"/>
<path d="M0 0 C-1.81115956 1.81115956 -4.61278227 1.38199448 -7.0625 1.5625 C-8.16722656 1.64628906 -9.27195312 1.73007813 -10.41015625 1.81640625 C-11.69212891 1.90728516 -11.69212891 1.90728516 -13 2 C-13 2.66 -13 3.32 -13 4 C-13.89525391 4.07347656 -13.89525391 4.07347656 -14.80859375 4.1484375 C-23.56284092 4.90288971 -32.2777949 5.94679118 -41 7 C-40.98839844 8.03640625 -40.97679687 9.0728125 -40.96484375 10.140625 C-40.95546163 11.51041486 -40.94636188 12.88020668 -40.9375 14.25 C-40.92912109 14.93191406 -40.92074219 15.61382812 -40.91210938 16.31640625 C-40.89571608 19.69342554 -40.94371232 22.77291639 -42 26 C-35.04567778 28.04538889 -28.22124213 28.58169634 -21 29 C-21 29.33 -21 29.66 -21 30 C-28.26 30 -35.52 30 -43 30 C-43 22.08 -43 14.16 -43 6 C-33.79774056 4.08286262 -24.57578708 2.34779154 -15.3125 0.75 C-14.26126953 0.56276367 -13.21003906 0.37552734 -12.12695312 0.18261719 C-10.63518555 -0.0702002 -10.63518555 -0.0702002 -9.11328125 -0.328125 C-8.22423096 -0.4818457 -7.33518066 -0.63556641 -6.41918945 -0.79394531 C-3.99024385 -1.00083098 -2.30450544 -0.74328085 0 0 Z " fill="#F2F0F0" transform="translate(511,236)"/>
<path d="M0 0 C5.29712054 1.61856461 7.51899406 4.28736713 10.13671875 9.08203125 C12.50681134 13.96359037 13.46048117 17.58934623 13 23 C10.2421875 22.55859375 10.2421875 22.55859375 7 21 C5.21357673 18.20066413 4.19701319 15.19326581 3.125 12.0625 C2.81820313 11.23814453 2.51140625 10.41378906 2.1953125 9.56445312 C0 3.532244 0 3.532244 0 0 Z " fill="#F1EFF0" transform="translate(432,215)"/>
<path d="M0 0 C0.99 0.33 1.98 0.66 3 1 C1.76928787 4.11216106 0.51218538 7.21298448 -0.75 10.3125 C-1.27207031 11.63411133 -1.27207031 11.63411133 -1.8046875 12.98242188 C-2.15273438 13.82998047 -2.50078125 14.67753906 -2.859375 15.55078125 C-3.17358398 16.33106689 -3.48779297 17.11135254 -3.81152344 17.9152832 C-5.20723864 20.36351906 -6.6105079 21.53366749 -9 23 C-9.66 23 -10.32 23 -11 23 C-11.64379233 15.43544012 -9.12908803 9.38265492 -4.375 3.5 C-2 1 -2 1 0 0 Z " fill="#F0EFEF" transform="translate(366,215)"/>
<path d="M0 0 C14.50288569 0.36807791 28.67301753 3.11095235 42.9375 5.5625 C45.47058747 5.99221875 48.00378983 6.42126085 50.53710938 6.84960938 C56.69275293 7.89193962 62.8469242 8.94262299 69 10 C69 10.33 69 10.66 69 11 C55.04025814 11.49856221 40.75241499 8.83167065 27.125 6 C18.46988516 4.23821572 9.84783576 2.84260521 1 3 C0.67 2.01 0.34 1.02 0 0 Z " fill="#F1F0F0" transform="translate(229,226)"/>
<path d="M0 0 C-0.38671875 0.47308594 -0.7734375 0.94617188 -1.171875 1.43359375 C-8.1543181 10.29991382 -10.61751382 17.69753326 -11 29 C-11.33 29 -11.66 29 -12 29 C-14.10428384 23.87080814 -14.21755666 19.4389165 -14 14 C-13.34 14 -12.68 14 -12 14 C-11.855625 13.071875 -11.71125 12.14375 -11.5625 11.1875 C-11 8 -11 8 -10 5 C-9.34 5 -8.68 5 -8 5 C-8 4.01 -8 3.02 -8 2 C-11.3 2.33 -14.6 2.66 -18 3 C-18.33 2.34 -18.66 1.68 -19 1 C-12.62694402 0.25492456 -6.41688675 -0.10349817 0 0 Z " fill="#F0EFF0" transform="translate(571,285)"/>
<path d="M0 0 C2.85423192 -0.02718316 5.70820015 -0.04692705 8.5625 -0.0625 C9.36236328 -0.07087891 10.16222656 -0.07925781 10.98632812 -0.08789062 C15.77163104 -0.10742247 20.28145051 0.19562982 25 1 C25 1.33 25 1.66 25 2 C19.73527668 2.57511213 14.46998327 3.14457708 9.20410156 3.70898438 C7.41552547 3.90147108 5.62711005 4.09545732 3.83886719 4.29101562 C1.25757736 4.57302945 -1.32425631 4.84951401 -3.90625 5.125 C-4.69616333 5.21249512 -5.48607666 5.29999023 -6.29992676 5.39013672 C-11.22981463 5.90948477 -16.04254191 6.07900332 -21 6 C-18.22957891 3.22957891 -16.23466195 3.60203894 -12.375 3.375 C-11.18648437 3.30023438 -9.99796875 3.22546875 -8.7734375 3.1484375 C-7.40058594 3.07496094 -7.40058594 3.07496094 -6 3 C-6 2.34 -6 1.68 -6 1 C-4.02 1 -2.04 1 0 1 C0 0.67 0 0.34 0 0 Z " fill="#E3E3E3" transform="translate(547,219)"/>
<path d="M0 0 C6.7685324 -0.10152799 13.30324864 -0.03026944 20 1 C19.67 2.65 19.34 4.3 19 6 C12.59646678 6.2361959 7.15370839 5.823321 1 4 C0.67 2.68 0.34 1.36 0 0 Z " fill="#2F2F2F" transform="translate(227,221)"/>
<path d="M0 0 C9.52149445 0.52296087 18.67490566 2.1184137 28 4 C28.07142857 12.71428571 28.07142857 12.71428571 27 17 C25 14 25 14 24.0625 10.375 C23.711875 9.26125 23.36125 8.1475 23 7 C22.01 6.67 21.02 6.34 20 6 C20 5.34 20 4.68 20 4 C18.68 4.33 17.36 4.66 16 5 C16 4.34 16 3.68 16 3 C15.18015625 2.95101562 14.3603125 2.90203125 13.515625 2.8515625 C12.43796875 2.77679688 11.3603125 2.70203125 10.25 2.625 C9.18265625 2.55539063 8.1153125 2.48578125 7.015625 2.4140625 C4.19793568 2.0271777 2.4169634 1.44313834 0 0 Z " fill="#F3F2F2" transform="translate(304,238)"/>
<path d="M0 0 C-0.20496094 0.64066406 -0.40992188 1.28132812 -0.62109375 1.94140625 C-2.18827364 6.97287851 -3.43042174 11.75988003 -4 17 C-6.97411124 18.23921302 -9.85262818 19.30058404 -13 20 C-12.443125 19.278125 -11.88625 18.55625 -11.3125 17.8125 C-8.3898258 13.50649602 -6.87758988 8.60403516 -5.1484375 3.73046875 C-3.83767747 0.6140699 -3.35564579 0 0 0 Z " fill="#312F30" transform="translate(371,217)"/>
<path d="M0 0 C-1.81115956 1.81115956 -4.61278227 1.38199448 -7.0625 1.5625 C-8.71958984 1.68818359 -8.71958984 1.68818359 -10.41015625 1.81640625 C-11.69212891 1.90728516 -11.69212891 1.90728516 -13 2 C-13 2.66 -13 3.32 -13 4 C-14.06927734 4.09087891 -14.06927734 4.09087891 -15.16015625 4.18359375 C-19.33859343 4.54913671 -23.47873109 4.91911345 -27.625 5.5625 C-31.77225215 6.10010676 -35.82537593 6.08519641 -40 6 C-40 5.67 -40 5.34 -40 5 C-34.94803484 4.11678132 -29.89438054 3.24426953 -24.83886719 2.3815918 C-23.11961164 2.08667235 -21.40085265 1.78884269 -19.68261719 1.48803711 C-17.21153816 1.05595537 -14.73885741 0.63440043 -12.265625 0.21484375 C-11.49881409 0.07843979 -10.73200317 -0.05796417 -9.94195557 -0.19850159 C-6.29016883 -0.8077708 -3.54128132 -1.05798213 0 0 Z " fill="#E0DEDF" transform="translate(511,236)"/>
<path d="M0 0 C-3.32306955 2.2153797 -5.28244338 2.518654 -9.19921875 3.0703125 C-10.40771484 3.24433594 -11.61621094 3.41835937 -12.86132812 3.59765625 C-14.12396484 3.77167969 -15.38660156 3.94570312 -16.6875 4.125 C-17.96173828 4.30675781 -19.23597656 4.48851562 -20.54882812 4.67578125 C-23.69831741 5.12402317 -26.84864076 5.56513331 -30 6 C-30.33 5.34 -30.66 4.68 -31 4 C-24.93515131 2.53994383 -18.83102065 1.38401567 -12.6875 0.3125 C-11.89875488 0.16901123 -11.11000977 0.02552246 -10.29736328 -0.12231445 C-9.54310059 -0.25081787 -8.78883789 -0.37932129 -8.01171875 -0.51171875 C-7.33584717 -0.62990967 -6.65997559 -0.74810059 -5.96362305 -0.86987305 C-3.77216228 -1.01509853 -2.09141281 -0.63428333 0 0 Z " fill="#F2F1F2" transform="translate(542,231)"/>
<path d="M0 0 C0.66 0 1.32 0 2 0 C6.50037671 8.02241066 7.4490098 17.74733947 5 26.625 C4.67 27.40875 4.34 28.1925 4 29 C3.34 29 2.68 29 2 29 C2.165 28.2575 2.33 27.515 2.5 26.75 C3.65340684 18.09944871 3.49983463 11.02045435 0 3 C0 2.01 0 1.02 0 0 Z " fill="#FAF9F9" transform="translate(627,293)"/>
<path d="M0 0 C0.68383255 0.04580704 1.3676651 0.09161407 2.07221985 0.1388092 C4.25299722 0.28617734 6.43309507 0.4418086 8.61328125 0.59765625 C10.09306167 0.69911304 11.57287914 0.80003093 13.05273438 0.90039062 C16.67753391 1.1473976 20.30176968 1.40181776 23.92578125 1.66015625 C23.92578125 1.99015625 23.92578125 2.32015625 23.92578125 2.66015625 C19.56585254 2.70961011 15.20607263 2.74590113 10.84594727 2.77001953 C9.36284542 2.78007446 7.87976337 2.79372029 6.39672852 2.81103516 C4.26443594 2.83530631 2.13240556 2.84664424 0 2.85546875 C-1.92453003 2.8711792 -1.92453003 2.8711792 -3.88793945 2.88720703 C-7.07421875 2.66015625 -7.07421875 2.66015625 -10.07421875 0.66015625 C-6.43529267 -0.55281911 -3.82845877 -0.26564816 0 0 Z " fill="#FDFCFC" transform="translate(67.07421875,253.33984375)"/>
<path d="M0 0 C3.14318972 1.57159486 3.46088309 4.22861392 4.6875 7.4375 C5.14511719 8.61183594 5.60273438 9.78617188 6.07421875 10.99609375 C7 14 7 14 6 16 C5.01 16 4.02 16 3 16 C2.16235732 14.04350603 1.33000941 12.08474444 0.5 10.125 C0.0359375 9.03445312 -0.428125 7.94390625 -0.90625 6.8203125 C-2 4 -2 4 -2 2 C-1.34 2 -0.68 2 0 2 C0 1.34 0 0.68 0 0 Z " fill="#343031" transform="translate(430,214)"/>
<path d="M0 0 C5 2 5 2 7.125 3 C10.97976901 4.34078922 14.76707543 4.71130193 18.8125 5.125 C19.99489258 5.25455078 19.99489258 5.25455078 21.20117188 5.38671875 C23.13343084 5.59751064 25.06663263 5.79962896 27 6 C27 6.33 27 6.66 27 7 C17.64625705 7.32254286 7.63800631 6.86437124 -1 3 C-0.67 2.01 -0.34 1.02 0 0 Z " fill="#F6F5F6" transform="translate(26,261)"/>
<path d="M0 0 C0.33 0 0.66 0 1 0 C1 1.65 1 3.3 1 5 C-2.14930893 6.04976964 -4.38814456 6.10131595 -7.6875 6.0625 C-8.68136719 6.05347656 -9.67523438 6.04445312 -10.69921875 6.03515625 C-11.83810547 6.01775391 -11.83810547 6.01775391 -13 6 C-12.34 5.01 -11.68 4.02 -11 3 C-8.4375 2.875 -8.4375 2.875 -6 3 C-5.67 2.67 -5.34 2.34 -5 2 C-3.33382885 1.95936168 -1.66611905 1.957279 0 2 C0 1.34 0 0.68 0 0 Z " fill="#FEFEFE" transform="translate(396,223)"/>
<path d="M0 0 C0.66 0 1.32 0 2 0 C0.63981009 3.11963955 -0.83260134 5.00834822 -3.4375 7.1875 C-4.33275391 7.95126953 -4.33275391 7.95126953 -5.24609375 8.73046875 C-7 10 -7 10 -10 11 C-8.63631551 6.09073585 -6.26755711 4.57831576 -2 2 C-1.34 1.34 -0.68 0.68 0 0 Z " fill="#FBFBFB" transform="translate(779,256)"/>
<path d="M0 0 C1.65 0 3.3 0 5 0 C5.07654536 4.51617599 5.10228696 8.59085217 4 13 C1.99706653 9.99559979 1.50728374 8.29006055 0.875 4.8125 C0.70742188 3.91144531 0.53984375 3.01039063 0.3671875 2.08203125 C0.24601562 1.39496094 0.12484375 0.70789063 0 0 Z " fill="#FDFDFD" transform="translate(327,242)"/>
<path d="M0 0 C1.27875 0.103125 2.5575 0.20625 3.875 0.3125 C4.95394531 0.39951172 4.95394531 0.39951172 6.0546875 0.48828125 C8 1 8 1 10 4 C9.625 6.6875 9.625 6.6875 9 9 C8.01 8.67 7.02 8.34 6 8 C6 6.35 6 4.7 6 3 C3.69 2.67 1.38 2.34 -1 2 C-0.67 1.34 -0.34 0.68 0 0 Z " fill="#FEFEFE" transform="translate(566,218)"/>
<path d="M0 0 C4.62 0 9.24 0 14 0 C14 0.33 14 0.66 14 1 C13.30132812 1.13277344 12.60265625 1.26554688 11.8828125 1.40234375 C10.97273438 1.57894531 10.06265625 1.75554687 9.125 1.9375 C8.22007812 2.11152344 7.31515625 2.28554687 6.3828125 2.46484375 C4.00043683 2.89963701 4.00043683 2.89963701 2 4 C1.53476937 5.89533342 1.53476937 5.89533342 1.375 8.0625 C1.25125 9.361875 1.1275 10.66125 1 12 C0.67 12 0.34 12 0 12 C0 8.04 0 4.08 0 0 Z " fill="#FEFEFE" transform="translate(403,212)"/>
<path d="M0 0 C0 0.99 0 1.98 0 3 C-6.11485027 3.09706112 -11.93303301 2.77040851 -18 2 C-18 1.67 -18 1.34 -18 1 C-15.93769732 0.8309093 -13.8751477 0.66482867 -11.8125 0.5 C-10.08966797 0.36078125 -10.08966797 0.36078125 -8.33203125 0.21875 C-5.53927574 0.0354038 -2.79680188 -0.04213637 0 0 Z " fill="#DAD9D9" transform="translate(292,224)"/>
<path d="M0 0 C4.71346154 1.48846154 4.71346154 1.48846154 6.1640625 4.078125 C6.43992187 4.71234375 6.71578125 5.3465625 7 6 C5.5199159 5.88637738 4.04089926 5.75877092 2.5625 5.625 C1.73878906 5.55539063 0.91507812 5.48578125 0.06640625 5.4140625 C-0.61550781 5.27742188 -1.29742187 5.14078125 -2 5 C-2.33 4.34 -2.66 3.68 -3 3 C-2.01 2.01 -1.02 1.02 0 0 Z " fill="#F0F0F0" transform="translate(399,82)"/>
<path d="M0 0 C0.33 0 0.66 0 1 0 C1 4.95 1 9.9 1 15 C0.01 14.67 -0.98 14.34 -2 14 C-1.85923685 12.0412957 -1.7122324 10.08303907 -1.5625 8.125 C-1.48128906 7.03445313 -1.40007812 5.94390625 -1.31640625 4.8203125 C-1 2 -1 2 0 0 Z " fill="#FEFEFE" transform="translate(168,303)"/>
<path d="M0 0 C0.99 0.495 0.99 0.495 2 1 C3.33070829 6.3922614 3.03352411 11.60270744 2 17 C1.67 17 1.34 17 1 17 C0.67 11.39 0.34 5.78 0 0 Z " fill="#EAE9E9" transform="translate(239,297)"/>
<path d="M0 0 C3.96 0 7.92 0 12 0 C11.67 0.66 11.34 1.32 11 2 C8.27734375 2.4140625 8.27734375 2.4140625 4.9375 2.625 C3.83277344 2.69976562 2.72804688 2.77453125 1.58984375 2.8515625 C0.73519531 2.90054688 -0.11945313 2.94953125 -1 3 C-0.67 2.01 -0.34 1.02 0 0 Z " fill="#F8F8F8" transform="translate(493,226)"/>
<path d="M0 0 C1.98 0 3.96 0 6 0 C6.33 2.31 6.66 4.62 7 7 C6.01 7 5.02 7 4 7 C4 7.66 4 8.32 4 9 C3.34 9 2.68 9 2 9 C2.66 6.36 3.32 3.72 4 1 C2.68 0.67 1.36 0.34 0 0 Z " fill="#F0F0F0" transform="translate(780,236)"/>
<path d="M0 0 C2.18975773 3.28463659 2.99806563 6.20696275 4 10 C2.68 10 1.36 10 0 10 C-1.125 3.375 -1.125 3.375 0 0 Z " fill="#3B3839" transform="translate(433,220)"/>
<path d="M0 0 C7.42857143 -0.28571429 7.42857143 -0.28571429 11 2 C7.52674819 3.1577506 4.63932552 3.06866652 1 3 C0.67 2.01 0.34 1.02 0 0 Z " fill="#FEFEFE" transform="translate(229,226)"/>
<path d="M0 0 C0 0.66 0 1.32 0 2 C1.32 2.33 2.64 2.66 4 3 C0.18243176 4.37432457 -3.07255329 3.67975039 -7 3 C-3.375 0 -3.375 0 0 0 Z " fill="#E4E3E4" transform="translate(320,227)"/>
<path d="M0 0 C2.0625 0.6875 2.0625 0.6875 5.0625 2.6875 C3.78375 2.831875 2.505 2.97625 1.1875 3.125 C-1.19442894 3.39392746 -2.78202691 3.60976346 -4.9375 4.6875 C-4.5625 2.75 -4.5625 2.75 -3.9375 0.6875 C-1.9375 -0.3125 -1.9375 -0.3125 0 0 Z " fill="#E7E6E6" transform="translate(375.9375,213.3125)"/>
<path d="M0 0 C1.9375 0.375 1.9375 0.375 4 1 C4.33 1.66 4.66 2.32 5 3 C2.02588876 4.23921302 -0.85262818 5.30058404 -4 6 C-2.68 4.02 -1.36 2.04 0 0 Z " fill="#434142" transform="translate(362,231)"/>
<path d="M0 0 C-3.35327639 2.23551759 -3.90743657 2.17283528 -7.6875 1.625 C-8.49574219 1.51414063 -9.30398438 1.40328125 -10.13671875 1.2890625 C-10.75160156 1.19367188 -11.36648438 1.09828125 -12 1 C-12 0.67 -12 0.34 -12 0 C-3.42857143 -1.28571429 -3.42857143 -1.28571429 0 0 Z " fill="#DFDEDF" transform="translate(542,231)"/>
<path d="M0 0 C2.9375 0.375 2.9375 0.375 6 1 C6.33 1.66 6.66 2.32 7 3 C3.7 3 0.4 3 -3 3 C-2.01 2.67 -1.02 2.34 0 2 C0 1.34 0 0.68 0 0 Z " fill="#FDFDFD" transform="translate(541,220)"/>
<path d="M0 0 C-0.99 1.485 -0.99 1.485 -2 3 C-5.125 3.1875 -5.125 3.1875 -8 3 C-8 2.34 -8 1.68 -8 1 C-3.375 -1.125 -3.375 -1.125 0 0 Z " fill="#F0F0F0" transform="translate(222,342)"/>
<path d="M0 0 C2.97 0 5.94 0 9 0 C7.515 1.485 7.515 1.485 6 3 C2.3125 2.6875 2.3125 2.6875 -1 2 C-0.67 1.34 -0.34 0.68 0 0 Z " fill="#F7F7F7" transform="translate(416,213)"/>
<path d="M0 0 C0 0.99 0 1.98 0 3 C-3.3 2.67 -6.6 2.34 -10 2 C-10 1.67 -10 1.34 -10 1 C-6.56484998 0.37542727 -3.50935186 0 0 0 Z " fill="#EAEAEA" transform="translate(572,225)"/>
<path d="M0 0 C2.64 0 5.28 0 8 0 C8 0.33 8 0.66 8 1 C5.36 1 2.72 1 0 1 C0 0.67 0 0.34 0 0 Z " fill="#FFFFFF" transform="translate(655,278)"/>
<path d="M0 0 C2.31 0 4.62 0 7 0 C7 0.33 7 0.66 7 1 C4.69 1 2.38 1 0 1 C0 0.67 0 0.34 0 0 Z " fill="#FFFFFF" transform="translate(402,328)"/>
<path d="M0 0 C1.98 0 3.96 0 6 0 C6 0.33 6 0.66 6 1 C4.02 1 2.04 1 0 1 C0 0.67 0 0.34 0 0 Z " fill="#FFFFFF" transform="translate(280,223)"/>
<path d="M0 0 C1 4 1 4 1 4 Z " fill="#FFFFFF" transform="translate(556,308)"/>
<path d="M0 0 C4 1 4 1 4 1 Z " fill="#FFFFFF" transform="translate(665,277)"/>
<path d="M0 0 C4 1 4 1 4 1 Z " fill="#FFFFFF" transform="translate(264,221)"/>
<path d="M0 0 C3 1 3 1 3 1 Z " fill="#FFFFFF" transform="translate(254,220)"/>
<path d="M0 0 C2 1 2 1 2 1 Z " fill="#FFFFFF" transform="translate(648,279)"/>
<path d="M0 0 C2 1 2 1 2 1 Z " fill="#FFFFFF" transform="translate(382,226)"/>
<path d="M0 0 C2 1 2 1 2 1 Z " fill="#FFFFFF" transform="translate(248,219)"/>
<path d="" fill="#FFFFFF" transform="translate(0,0)"/>
<path d="" fill="#FFFFFF" transform="translate(0,0)"/>
<path d="" fill="#FFFFFF" transform="translate(0,0)"/>
<path d="" fill="#FFFFFF" transform="translate(0,0)"/>
<path d="" fill="#FFFFFF" transform="translate(0,0)"/>
</svg>
